<?xml version="1.0" encoding="UTF-8" standalone="no"?>
<!-- Created with Inkscape (http://www.inkscape.org/) -->

<svg
   xmlns:dc="http://purl.org/dc/elements/1.1/"
   xmlns:cc="http://creativecommons.org/ns#"
   xmlns:rdf="http://www.w3.org/1999/02/22-rdf-syntax-ns#"
   xmlns:svg="http://www.w3.org/2000/svg"
   xmlns="http://www.w3.org/2000/svg"
   xmlns:sodipodi="http://sodipodi.sourceforge.net/DTD/sodipodi-0.dtd"
   xmlns:inkscape="http://www.inkscape.org/namespaces/inkscape"
   width="210mm"
   height="297mm"
   viewBox="0 0 210 297"
   version="1.1"
   id="svg8"
   inkscape:version="0.92.1 r15371"
   sodipodi:docname="drawing.svg">
  <defs
     id="defs2" />
  <sodipodi:namedview
     id="base"
     pagecolor="#ffffff"
     bordercolor="#666666"
     borderopacity="1.0"
     inkscape:pageopacity="0.0"
     inkscape:pageshadow="2"
     inkscape:zoom="1"
     inkscape:cx="501.55757"
     inkscape:cy="690.99989"
     inkscape:document-units="mm"
     inkscape:current-layer="layer1"
     showgrid="false"
     inkscape:snap-others="false"
     inkscape:window-width="883"
     inkscape:window-height="1008"
     inkscape:window-x="-6"
     inkscape:window-y="0"
     inkscape:window-maximized="0" />
  <metadata
     id="metadata5">
    <rdf:RDF>
      <cc:Work
         rdf:about="">
        <dc:format>image/svg+xml</dc:format>
        <dc:type
           rdf:resource="http://purl.org/dc/dcmitype/StillImage" />
        <dc:title></dc:title>
      </cc:Work>
    </rdf:RDF>
  </metadata>
  <g
     inkscape:label="Layer 1"
     inkscape:groupmode="layer"
     id="layer1">
    <g
       inkscape:groupmode="layer"
       id="layer2"
       inkscape:label="Layer 2"
       sodipodi:insensitive="true">
      <rect
         y="11.491199"
         x="11.580487"
         height="271.66046"
         width="185.48189"
         id="rect4520"
         style="font-style:normal;font-weight:normal;font-size:medium;line-height:1.25;font-family:sans-serif;letter-spacing:0px;word-spacing:0px;fill:#454837;fill-opacity:1;stroke:#ffffff;stroke-width:1.17138255;stroke-opacity:1" />
    </g>
    <path
       inkscape:connector-curvature="0"
       id="path3684"
       style="font-style:normal;font-variant:normal;font-weight:bold;font-stretch:normal;font-size:medium;line-height:1.25;font-family:sans-serif;-inkscape-font-specification:'sans-serif Bold';letter-spacing:0px;word-spacing:0px;fill:#ffffff;fill-opacity:1;stroke:none;stroke-width:1.22313511"
       d="m 79.956969,118.61523 h -9.48408 l -2.46061,-7.1907 h -13.18694 l -2.46061,7.1907 h -9.24518 l 13.13915,-35.571256 h 10.55912 z m -14.16639,-13.71249 -4.37176,-12.756916 -4.37177,12.756916 z" />
    <path
       style="color:#000000;font-style:normal;font-variant:normal;font-weight:bold;font-stretch:normal;font-size:104.16099548px;line-height:1.25;font-family:sans-serif;-inkscape-font-specification:'sans-serif Bold';font-variant-ligatures:normal;font-variant-position:normal;font-variant-caps:normal;font-variant-numeric:normal;font-variant-alternates:normal;font-feature-settings:normal;text-indent:0;text-align:start;text-decoration:none;text-decoration-line:none;text-decoration-style:solid;text-decoration-color:#000000;letter-spacing:0px;word-spacing:0px;text-transform:none;writing-mode:lr-tb;direction:ltr;text-orientation:mixed;dominant-baseline:auto;baseline-shift:baseline;text-anchor:start;white-space:normal;shape-padding:0;clip-rule:nonzero;display:inline;overflow:visible;visibility:visible;opacity:1;isolation:auto;mix-blend-mode:normal;color-interpolation:sRGB;color-interpolation-filters:linearRGB;solid-color:#000000;solid-opacity:1;vector-effect:none;fill:#ffffff;fill-opacity:1;fill-rule:nonzero;stroke:none;stroke-width:1.17427361;stroke-linecap:round;stroke-linejoin:round;stroke-miterlimit:4;stroke-dasharray:none;stroke-dashoffset:0;stroke-opacity:1;paint-order:markers fill stroke;color-rendering:auto;image-rendering:auto;shape-rendering:auto;text-rendering:auto;enable-background:accumulate"
       d="m 34.064453,97.580078 a 0.58719552,0.58719552 0 0 0 -0.550781,0.382813 l -7.335938,19.861329 a 0.58719552,0.58719552 0 0 0 0.550782,0.79101 h 5.162109 a 0.58719552,0.58719552 0 0 0 0.554687,-0.39648 l 1.238282,-3.61914 h 6.52539 l 1.238282,3.61914 a 0.58719552,0.58719552 0 0 0 0.554687,0.39648 h 5.294922 a 0.58719552,0.58719552 0 0 0 0.550781,-0.79101 L 40.511719,97.962891 a 0.58719552,0.58719552 0 0 0 -0.550781,-0.382813 z m 0.410156,1.173828 h 5.078125 l 6.900391,18.687504 h -4.03125 l -1.238281,-3.61719 a 0.58719552,0.58719552 0 0 0 -0.556641,-0.39844 h -7.363281 a 0.58719552,0.58719552 0 0 0 -0.554688,0.39844 l -1.238281,3.61719 h -3.898437 z m 2.4375,3.908204 a 0.58719552,0.58719552 0 0 0 -0.521484,0.39648 l -2.441406,7.12305 a 0.58719552,0.58719552 0 0 0 0.55664,0.77734 h 4.88086 a 0.58719552,0.58719552 0 0 0 0.55664,-0.77734 l -2.441406,-7.12305 a 0.58719552,0.58719552 0 0 0 -0.589844,-0.39648 z m 0.0332,2.39844 1.621094,4.72461 h -3.240234 z"
       id="path3684-8"
       inkscape:connector-curvature="0" />
    <path
       style="color:#000000;font-style:normal;font-variant:normal;font-weight:bold;font-stretch:normal;font-size:medium;line-height:1.25;font-family:sans-serif;-inkscape-font-specification:'sans-serif Bold';font-variant-ligatures:normal;font-variant-position:normal;font-variant-caps:normal;font-variant-numeric:normal;font-variant-alternates:normal;font-feature-settings:normal;text-indent:0;text-align:start;text-decoration:none;text-decoration-line:none;text-decoration-style:solid;text-decoration-color:#000000;letter-spacing:0px;word-spacing:0px;text-transform:none;writing-mode:lr-tb;direction:ltr;text-orientation:mixed;dominant-baseline:auto;baseline-shift:baseline;text-anchor:start;white-space:normal;shape-padding:0;clip-rule:nonzero;display:inline;overflow:visible;visibility:visible;opacity:1;isolation:auto;mix-blend-mode:normal;color-interpolation:sRGB;color-interpolation-filters:linearRGB;solid-color:#000000;solid-opacity:1;vector-effect:none;fill:#ffffff;fill-opacity:1;fill-rule:nonzero;stroke:none;stroke-width:1.22313511;stroke-linecap:butt;stroke-linejoin:miter;stroke-miterlimit:4;stroke-dasharray:none;stroke-dashoffset:0;stroke-opacity:1;color-rendering:auto;image-rendering:auto;shape-rendering:auto;text-rendering:auto;enable-background:accumulate"
       d="M 55.199219,32.830078 41.607422,69.625 h 10.560547 l 2.460937,-7.191406 h 12.3125 L 69.402344,69.625 H 80.201172 L 79.896484,68.800781 66.609375,32.830078 Z m 0.851562,1.22461 h 9.707031 l 12.6875,34.347656 h -8.169921 l -2.458985,-7.191406 h -14.0625 l -2.460937,7.191406 h -7.929688 z m 4.734375,6.603515 -5.228515,15.253906 h 10.457031 l -0.279297,-0.808593 z m 0,3.771485 3.515625,10.259765 h -7.03125 z"
       id="path3684-0"
       inkscape:connector-curvature="0" />
    <path
       inkscape:connector-curvature="0"
       id="path3684-8-3"
       style="font-style:normal;font-variant:normal;font-weight:bold;font-stretch:normal;font-size:104.16099548px;line-height:1.25;font-family:sans-serif;-inkscape-font-specification:'sans-serif Bold';letter-spacing:0px;word-spacing:0px;fill:#ffffff;fill-opacity:1;stroke:none;stroke-width:1.17427361;stroke-linecap:round;stroke-linejoin:round;stroke-miterlimit:4;stroke-dasharray:none;stroke-opacity:1;paint-order:markers fill stroke"
       d="m 46.66363,69.625 h -5.295658 l -1.373935,-4.0151 h -7.36323 L 31.256871,69.625 H 26.09461 l 7.33655,-19.862042 h 5.895916 z m -7.910138,-7.65669 -2.441069,-7.12312 -2.441071,7.12312 z" />
    <path
       inkscape:connector-curvature="0"
       id="path3684-88"
       style="font-style:normal;font-variant:normal;font-weight:bold;font-stretch:normal;font-size:medium;line-height:1.25;font-family:sans-serif;-inkscape-font-specification:'sans-serif Bold';letter-spacing:0px;word-spacing:0px;fill:#ffffff;fill-opacity:1;stroke:none;stroke-width:0.97624123"
       d="m 121.74941,118.36771 h -6.04172 l -1.5675,-7.1907 h -8.4006 l -1.5675,7.1907 h -5.889518 l 8.370138,-35.571258 h 6.72656 z m -9.02454,-13.71249 -2.78497,-12.756918 -2.78499,12.756918 z" />
    <path
       inkscape:connector-curvature="0"
       id="path3684-88-2"
       style="font-style:normal;font-variant:normal;font-weight:bold;font-stretch:normal;font-size:medium;line-height:1.25;font-family:sans-serif;-inkscape-font-specification:'sans-serif Bold';letter-spacing:0px;word-spacing:0px;fill:#ffffff;fill-opacity:1;stroke:none;stroke-width:0.97624123"
       d="m 149.44885,118.36771 h -6.04172 l -1.56751,-7.1907 h -8.40058 l -1.5675,7.1907 H 125.982 l 8.37014,-35.571256 h 6.72656 z m -9.02454,-13.71249 -2.78498,-12.756916 -2.78499,12.756916 z" />
    <path
       style="fill:#ffffff;fill-opacity:1;stroke:none;stroke-width:1.04870367;stroke-linecap:round;stroke-linejoin:round;stroke-miterlimit:4;stroke-dasharray:none;stroke-opacity:1;paint-order:markers fill stroke"
       d="m 120.63966,84.049207 -2.22577,2.6567 -2.22566,2.65691 2.22218,2.66952 2.22218,2.66951 0.002,-2.97173 h 6.23999 l -0.005,2.97173 2.22866,-2.64616 2.22866,-2.64615 -2.21919,-2.68027 -2.21919,-2.68006 -0.005,2.97153 h -6.24501 z"
       id="rect4613"
       inkscape:connector-curvature="0" />
    <path
       inkscape:connector-curvature="0"
       id="path3684-88-7"
       style="font-style:normal;font-variant:normal;font-weight:bold;font-stretch:normal;font-size:medium;line-height:1.25;font-family:sans-serif;-inkscape-font-specification:'sans-serif Bold';letter-spacing:0px;word-spacing:0px;fill:#ffffff;fill-opacity:1;stroke:none;stroke-width:0.54199886"
       d="m 103.81617,143.56762 h -4.727028 l -1.22641,-2.83286 h -6.57261 l -1.22641,2.83286 h -4.60796 l 6.54879,-14.01373 h 5.26285 z m -7.060778,-5.4022 -2.17896,-5.02575 -2.17897,5.02575 z" />
    <path
       inkscape:connector-curvature="0"
       id="path3684-88-2-7"
       style="font-style:normal;font-variant:normal;font-weight:bold;font-stretch:normal;font-size:medium;line-height:1.25;font-family:sans-serif;-inkscape-font-specification:'sans-serif Bold';letter-spacing:0px;word-spacing:0px;fill:#ffffff;fill-opacity:1;stroke:none;stroke-width:0.54199886"
       d="m 103.81617,160.32304 h -4.727028 l -1.22642,-2.83286 h -6.5726 l -1.22641,2.83286 h -4.60796 l 6.54878,-14.01373 h 5.26285 z m -7.060778,-5.4022 -2.17897,-5.02575 -2.17897,5.02575 z" />
    <path
       style="fill:#ffffff;fill-opacity:1;stroke:none;stroke-width:1.08285916;stroke-linecap:round;stroke-linejoin:round;stroke-miterlimit:4;stroke-dasharray:none;stroke-opacity:1;paint-order:markers fill stroke"
       d="m 115.32614,149.30931 -2.6567,-2.37312 -2.65691,-2.373 -2.66953,2.36929 -2.66951,2.36929 2.97174,0.002 v 6.65307 l -2.97174,-0.006 2.64617,2.3762 2.64615,2.37619 2.68027,-2.3661 2.68006,-2.36609 -2.97153,-0.006 v -6.65843 z"
       id="rect4613-5"
       inkscape:connector-curvature="0" />
    <path
       style="fill:#ffffff;fill-opacity:1;stroke:none;stroke-width:0.69816518;stroke-linecap:round;stroke-linejoin:round;stroke-miterlimit:4;stroke-dasharray:none;stroke-opacity:1;paint-order:markers fill stroke"
       d="m 85.455752,143.56763 h 30.207268 v 0.88952 H 85.455752 Z"
       id="rect4656"
       inkscape:connector-curvature="0" />
  </g>
</svg>
