<?xml version="1.0" encoding="iso-8859-1"?>
<!-- Generator: Adobe Illustrator 9.0, SVG Export Plug-In  -->
<!DOCTYPE svg PUBLIC "-//W3C//DTD SVG 20000303 Stylable//EN"   "http://www.w3.org/TR/2000/03/WD-SVG-20000303/DTD/svg-20000303-stylable.dtd" [
	<!ENTITY st0 "fill-rule:nonzero;clip-rule:nonzero;fill:#F45EAC;stroke:#FFFFFF;stroke-width:0;stroke-miterlimit:4;">
	<!ENTITY st1 "fill:#25A382;stroke:none;">
	<!ENTITY st2 "fill:#35F2C1;stroke:none;">
	<!ENTITY st3 "stroke:none;">
]>
<svg  width="623.605" height="436.229" viewBox="0 0 623.605 436.229" xml:space="preserve">
	<g id="Layer_x0020_1" style="&st0;">
		<g>
		</g>
		<g>
		</g>
		<g>
			<path style="&st3;" d="M570.459,242.604l-74.979-44.022l-23.88,13.81c27.441,16.112,52.844,31.026,68.967,40.493L269.374,410.032L55.076,284.213C38.495,274.597,24,252.132,24,236.103v-28c0-2.09,0.301-7.116,3.089-8.625c0.102-0.055,0.202-0.112,0.302-0.169
				l5.728-3.319c-0.446-0.034-0.831-0.04-1.151-0.018c-5.575,2.382-12.148,0.222-15.17-5.17c-2.626-4.687-1.768-10.386,1.746-14.104l-3.186,1.846c0.1-0.058,0.201-0.114,0.302-0.169C5.708,183.763,0,194.599,0,208.103v28c0,24.625,18.879,54.862,42.98,68.84
				c-0.056-0.033,220.278,129.33,220.278,129.33c3.73,2.189,8.35,2.203,12.092,0.035L570.4,263.335c3.693-2.141,5.971-6.081,5.983-10.35c0.013-4.268-2.243-8.221-5.925-10.382z"/>
		</g>
		<g>
			<path style="&st3;" d="M32.981,195.486c-0.181,0.098-0.368,0.176-0.551,0.264c0.165-0.069,0.349-0.154,0.551-0.264z"/>
		</g>
		<g>
			<path style="&st3;" d="M16.798,190.8c3.022,5.393,9.596,7.553,15.17,5.17c0.32-0.021,0.705-0.016,1.151,0.018c3.292,0.248,9.707,1.918,15.014,3.968l216.11,125.382c3.719,2.158,8.308,2.161,12.029,0.009L471.6,212.391l23.88-13.81l77.372-44.744
				c3.705-2.144,5.989-6.099,5.992-10.38c0.003-4.281-2.275-8.24-5.979-10.388L356.092,7.304c-0.045-0.027-0.085-0.061-0.131-0.087c-14.426-8.366-28.909-9.678-39.735-3.599c-0.048,0.026-0.095,0.054-0.142,0.081L21.25,174.551c-1.027,0.595-1.93,1.324-2.706,2.145
				c-3.513,3.718-4.372,9.417-1.746,14.104z M32.43,195.75c0.184-0.088,0.37-0.166,0.551-0.264c-0.203,0.11-0.387,0.195-0.551,0.264z M342.391,8.278c0.434-0.351,0.891-0.679,1.377-0.971c-0.486,0.292-0.943,0.62-1.377,0.971z M22.799,173.803
				c-0.42,0.185-0.846,0.362-1.247,0.579c0.409-0.221,0.826-0.41,1.247-0.579z"/>
		</g>
		<g>
			<g>
				<path style="&st2;" d="M539.566,252.884l-0.088-80.221L275.273,325.348c-2.111,1.221-4.5,1.723-6.851,1.558v83.1l271.145-157.121z"/>
			</g>
			<g>
				<path style="&st1;" d="M47.133,199.957c-5.307-2.049-11.722-3.72-15.014-3.968l-5.728,3.319c-0.1,0.058-0.201,0.114-0.302,0.169c-2.788,1.51-3.089,6.535-3.089,8.625v28c0,16.029,14.495,38.494,31.076,48.11l214.298,125.819l0.048-0.027v-83.1
					c-1.795-0.127-3.569-0.633-5.178-1.566L47.133,199.957z"/>
			</g>
		</g>
		<g>
			<path style="&st1;" d="M614.324,308.063l-73.959-42.51l-0.006-95.3c0-0.001,0-0.003,0-0.003c0-0.012,0.002-0.023,0.002-0.035c-0.01-6.615-3.553-12.722-9.289-16.016L357.158,54.352c-5.721-3.285-12.758-3.274-18.471,0.028L176.25,148.008
				c-5.728,3.312-9.251,9.429-9.24,16.044c0.01,6.615,3.551,12.722,9.288,16.016l164.624,94.515l0.006,95.141c-0.002,0.061-0.006,0.121-0.006,0.182c0.008,6.615,3.547,12.721,9.281,16.016l83.246,47.848c5.723,3.289,12.764,3.281,18.479-0.023l162.438-93.627
				c5.727-3.311,9.25-9.426,9.24-16.039c-0.008-6.615-3.547-12.721-9.281-16.016z"/>
		</g>
		<g>
			<path style="&st2;" d="M516.484,274.073l0.104-104.452l-0.086,0.05c-36.871-21.17-164.068-94.736-164.068-94.736L322.561,92.38l13.07,7.543c2.753,1.589,4.464,4.513,4.5,7.691c0.037,3.179-1.605,6.141-4.322,7.793l-46.22,28.358
				c-6.429,3.911-14.98,4.43-21.5,0.667l-17.131-10.238l-46.606,27.217c0,0,150.264,86.811,164.127,94.771l-0.059,104.383l75.961,45.466l148.094-86.482l-75.99-45.475z"/>
		</g>
	</g>
</svg>
