<?xml version="1.0" encoding="UTF-8" standalone="no"?>
<!-- Generator: Adobe Illustrator 9.0, SVG Export Plug-In  -->

<svg
   width="512"
   height="512"
   viewBox="0 0 512.00002 512"
   xml:space="preserve"
   version="1.1"
   id="svg217"
   sodipodi:docname="flowbook.svg"
   inkscape:version="1.2.2 (732a01da63, 2022-12-09)"
   inkscape:export-filename="flowbook_1.png"
   inkscape:export-xdpi="96"
   inkscape:export-ydpi="96"
   xmlns:inkscape="http://www.inkscape.org/namespaces/inkscape"
   xmlns:sodipodi="http://sodipodi.sourceforge.net/DTD/sodipodi-0.dtd"
   xmlns="http://www.w3.org/2000/svg"
   xmlns:svg="http://www.w3.org/2000/svg"><defs
   id="defs221" /><sodipodi:namedview
   id="namedview219"
   pagecolor="#ffffff"
   bordercolor="#000000"
   borderopacity="0.25"
   inkscape:showpageshadow="2"
   inkscape:pageopacity="0.0"
   inkscape:pagecheckerboard="0"
   inkscape:deskcolor="#d1d1d1"
   showgrid="false"
   inkscape:zoom="0.88277037"
   inkscape:cx="-16.991961"
   inkscape:cy="300.19132"
   inkscape:window-width="1920"
   inkscape:window-height="1017"
   inkscape:window-x="-8"
   inkscape:window-y="-8"
   inkscape:window-maximized="1"
   inkscape:current-layer="svg217" />
	<g
   id="Layer_x0020_1"
   style="clip-rule:nonzero;fill:#f45eac;fill-rule:nonzero;stroke:#ffffff;stroke-width:0;stroke-miterlimit:4"
   transform="matrix(0.69119034,0,0,0.97766023,38.984332,29.906685)">
		<g
   id="g182">
		</g>
		<g
   id="g184">
		</g>
		<g
   id="g188">
			<path
   style="stroke:none"
   d="m 570.459,242.604 -74.979,-44.022 -23.88,13.81 c 27.441,16.112 52.844,31.026 68.967,40.493 L 269.374,410.032 55.076,284.213 C 38.495,274.597 24,252.132 24,236.103 v -28 c 0,-2.09 0.301,-7.116 3.089,-8.625 0.102,-0.055 0.202,-0.112 0.302,-0.169 l 5.728,-3.319 c -0.446,-0.034 -0.831,-0.04 -1.151,-0.018 -5.575,2.382 -12.148,0.222 -15.17,-5.17 -2.626,-4.687 -1.768,-10.386 1.746,-14.104 l -3.186,1.846 c 0.1,-0.058 0.201,-0.114 0.302,-0.169 C 5.708,183.763 0,194.599 0,208.103 v 28 c 0,24.625 18.879,54.862 42.98,68.84 -0.056,-0.033 220.278,129.33 220.278,129.33 3.73,2.189 8.35,2.203 12.092,0.035 L 570.4,263.335 c 3.693,-2.141 5.971,-6.081 5.983,-10.35 0.013,-4.268 -2.243,-8.221 -5.925,-10.382 z"
   id="path186" />
		</g>
		<g
   id="g192">
			<path
   style="stroke:none"
   d="m 32.981,195.486 c -0.181,0.098 -0.368,0.176 -0.551,0.264 0.165,-0.069 0.349,-0.154 0.551,-0.264 z"
   id="path190" />
		</g>
		<g
   id="g196">
			<path
   style="stroke:none;fill:#f45eac;fill-opacity:1"
   d="m 16.798,190.8 c 3.022,5.393 9.596,7.553 15.17,5.17 0.32,-0.021 0.705,-0.016 1.151,0.018 3.292,0.248 9.707,1.918 15.014,3.968 l 216.11,125.382 c 3.719,2.158 8.308,2.161 12.029,0.009 L 471.6,212.391 l 23.88,-13.81 77.372,-44.744 c 3.705,-2.144 5.989,-6.099 5.992,-10.38 0.003,-4.281 -2.275,-8.24 -5.979,-10.388 L 356.092,11.395401 c -0.045,-0.027 -0.085,-0.061 -0.131,-0.087 -14.426,-8.366 -28.909,-9.678 -39.735,-3.599 -0.048,0.026 -0.095,0.054 -0.142,0.081 L 21.25,174.551 c -1.027,0.595 -1.93,1.324 -2.706,2.145 -3.513,3.718 -4.372,9.417 -1.746,14.104 z m 15.632,4.95 c 0.184,-0.088 0.37,-0.166 0.551,-0.264 -0.203,0.11 -0.387,0.195 -0.551,0.264 z M 342.391,12.369401 c 0.434,-0.351 0.891,-0.679 1.377,-0.971 -0.486,0.292 -0.943,0.62 -1.377,0.971 z M 22.799,173.803 c -0.42,0.185 -0.846,0.362 -1.247,0.579 0.409,-0.221 0.826,-0.41 1.247,-0.579 z"
   id="path194"
   sodipodi:nodetypes="cccccccccsccccccccccccccccc" />
		</g>
		<g
   id="g206">
			<g
   id="g200">
				<path
   style="fill:#35f2c1;stroke:none"
   d="M 540.43516,252.57676 539.478,172.663 275.273,325.348 c -2.111,1.221 -4.5,1.723 -6.851,1.558 l 0.81945,83.46209 271.04985,-157.17585 z"
   id="path198"
   sodipodi:nodetypes="ccccccc" />
			</g>
			<g
   id="g204">
				<path
   style="fill:#25a382;stroke:none"
   d="M 48.255668,200.00867 C 42.333011,197.57213 33.479689,195.43951 32.300075,195.989 l -4.351826,2.02718 C 29.369283,197.24742 26.19,199.422 26.089,199.477 23.301,200.987 23,206.012 23,208.102 v 28 c 0,16.029 14.495,38.494 31.076,48.11 l 214.298,125.819 0.86745,0.33509 L 268.422,326.904 c -1.57771,-0.43704 -3.35171,-1.2014 -4.96071,-2.1344 z"
   id="path202"
   sodipodi:nodetypes="csccsscccccc" />
			</g>
		</g>
		<g
   id="g210">
			<path
   style="fill:#25a382;stroke:none"
   d="m 589.30861,311.89177 -76.41736,-43.76027 2.45236,-71.54702 v -0.003 c 0,-0.012 0.002,-0.023 0.002,-0.035 -0.01,-6.615 -3.553,-12.722 -9.289,-16.016 l -173.914,-99.847006 c -5.721,-3.285 -12.758,-3.274 -18.471,0.028 l -162.437,93.628006 c -5.728,3.312 -9.251,9.429 -9.24,16.044 0.01,6.615 3.551,12.722 9.288,16.016 l 164.624,94.515 0.006,72.63829 c -0.002,0.061 -0.006,0.121 -0.006,0.182 0.008,6.615 3.547,12.721 9.281,16.016 l 83.246,47.848 c 5.723,3.289 12.764,3.281 18.479,-0.023 l 162.438,-93.627 c 5.727,-3.311 9.25,-9.426 9.24,-16.039 -0.008,-6.615 -3.547,-12.721 -9.281,-16.016 z"
   id="path208"
   sodipodi:nodetypes="cccsccccccccccccccccc" />
		</g>
		<g
   id="g214">
			<path
   style="fill:#35f2c1;stroke:none;fill-opacity:1"
   d="m 487.41252,276.6728 -0.47544,-65.15855 -0.66544,-11.01071 c -36.871,-21.17 -158.85303,-95.14566 -158.85303,-95.14566 l -29.873,17.445 13.07,7.543 c 2.753,1.589 4.464,4.513 4.5,7.691 0.037,3.179 -1.605,6.141 -4.322,7.793 l -46.22,28.358 c -6.429,3.911 -14.98,4.43 -21.5,0.667 l -17.131,-10.238 -46.606,27.217 c 0,0 151.08345,86.37649 164.94645,94.33649 l 0.55559,85.32033 74.52696,42.71413 151.2021,-88.77878 -80.53818,-45.38163 z"
   id="path212"
   sodipodi:nodetypes="cccccccccccccccccc" />
		</g>
	</g>
</svg>
