<?xml version="1.0" encoding="UTF-8" standalone="no"?>
<!-- Created with Inkscape (http://www.inkscape.org/) -->

<svg
   xmlns:dc="http://purl.org/dc/elements/1.1/"
   xmlns:cc="http://creativecommons.org/ns#"
   xmlns:rdf="http://www.w3.org/1999/02/22-rdf-syntax-ns#"
   xmlns:svg="http://www.w3.org/2000/svg"
   xmlns="http://www.w3.org/2000/svg"
   xmlns:sodipodi="http://sodipodi.sourceforge.net/DTD/sodipodi-0.dtd"
   xmlns:inkscape="http://www.inkscape.org/namespaces/inkscape"
   width="32"
   height="32"
   viewBox="0 0 8.4666665 8.4666669"
   version="1.1"
   id="svg4677"
   inkscape:version="0.92.3 (2405546, 2018-03-11)"
   sodipodi:docname="help.svg">
  <defs
     id="defs4671" />
  <sodipodi:namedview
     id="base"
     pagecolor="#7e7e7e"
     bordercolor="#666666"
     borderopacity="1.0"
     inkscape:pageopacity="0"
     inkscape:pageshadow="2"
     inkscape:zoom="7.9195959"
     inkscape:cx="25.883571"
     inkscape:cy="23.65284"
     inkscape:document-units="mm"
     inkscape:current-layer="text121"
     showgrid="false"
     inkscape:window-width="957"
     inkscape:window-height="713"
     inkscape:window-x="67"
     inkscape:window-y="27"
     inkscape:window-maximized="1"
     units="px" />
  <metadata
     id="metadata4674">
    <rdf:RDF>
      <cc:Work
         rdf:about="">
        <dc:format>image/svg+xml</dc:format>
        <dc:type
           rdf:resource="http://purl.org/dc/dcmitype/StillImage" />
        <dc:title />
      </cc:Work>
    </rdf:RDF>
  </metadata>
  <g
     inkscape:label="Layer 1"
     inkscape:groupmode="layer"
     id="layer1"
     transform="translate(0,-288.53332)">
    <g
       aria-label="?"
       transform="scale(0.97883302,1.0216247)"
       style="font-style:normal;font-weight:normal;font-size:11.22277164px;line-height:1.25;font-family:sans-serif;letter-spacing:0px;word-spacing:0px;fill:#000000;fill-opacity:1;stroke:none;stroke-width:0.28056929"
       id="text121">
      <path
         d="M 5.0103815,287.91353 H 3.0321488 v -0.26851 q 0,-0.44935 0.1808357,-0.79458 0.1808356,-0.35072 0.7617017,-0.88774 l 0.3507117,-0.31784 q 0.3123525,-0.28495 0.4548291,-0.53702 0.1479564,-0.25208 0.1479564,-0.50415 0,-0.38359 -0.2630337,-0.59731 -0.2630337,-0.21919 -0.7343024,-0.21919 -0.4438694,0 -0.9589771,0.18631 -0.5151077,0.18084 -1.0740543,0.54251 v -1.72068 q 0.6630641,-0.23015 1.211051,-0.33975 0.5479869,-0.1096 1.0576148,-0.1096 1.337088,0 2.0385112,0.54799 0.7014232,0.54251 0.7014232,1.58916 0,0.53703 -0.2137149,0.96446 -0.2137148,0.42195 -0.7288225,0.90966 l -0.3507116,0.31235 q -0.3726311,0.33975 -0.4877084,0.54799 -0.1150772,0.20275 -0.1150772,0.44935 z m -1.9782327,0.81102 h 1.9782327 v 1.95083 H 3.0321488 Z"
         style="font-style:normal;font-variant:normal;font-weight:bold;font-stretch:normal;font-family:sans-serif;-inkscape-font-specification:'sans-serif Bold';stroke-width:0.28056929;fill:#f2f2f2;stroke:none"
         id="path19" />
    </g>
    <text
       xml:space="preserve"
       style="font-style:normal;font-weight:normal;font-size:10.58333302px;line-height:1.25;font-family:sans-serif;letter-spacing:0px;word-spacing:0px;fill:#000000;fill-opacity:1;stroke:none;stroke-width:0.26458332"
       x="6.8744421"
       y="293.52734"
       id="text125"><tspan
         sodipodi:role="line"
         id="tspan123"
         x="6.8744421"
         y="302.89111"
         style="stroke-width:0.26458332" /></text>
  </g>
</svg>
