<?xml version="1.0" encoding="UTF-8" standalone="no"?>
<!-- Created with Inkscape (http://www.inkscape.org/) -->

<svg
   width="16mm"
   height="16mm"
   viewBox="0 0 16 16"
   version="1.1"
   id="svg8"
   inkscape:version="1.1.2 (b8e25be8, 2022-02-05)"
   sodipodi:docname="nav.svg"
   xmlns:inkscape="http://www.inkscape.org/namespaces/inkscape"
   xmlns:sodipodi="http://sodipodi.sourceforge.net/DTD/sodipodi-0.dtd"
   xmlns="http://www.w3.org/2000/svg"
   xmlns:svg="http://www.w3.org/2000/svg"
   xmlns:rdf="http://www.w3.org/1999/02/22-rdf-syntax-ns#"
   xmlns:cc="http://creativecommons.org/ns#"
   xmlns:dc="http://purl.org/dc/elements/1.1/">
  <defs
     id="defs2">
    <linearGradient
       id="linearGradient10707"
       inkscape:swatch="solid">
      <stop
         style="stop-color:#000000;stop-opacity:1;"
         offset="0"
         id="stop10705" />
    </linearGradient>
  </defs>
  <sodipodi:namedview
     id="base"
     pagecolor="#ffffff"
     bordercolor="#666666"
     borderopacity="1.0"
     inkscape:pageopacity="0.0"
     inkscape:pageshadow="2"
     inkscape:zoom="7.9195959"
     inkscape:cx="53.096143"
     inkscape:cy="22.539029"
     inkscape:document-units="mm"
     inkscape:current-layer="layer1"
     showgrid="false"
     showguides="true"
     inkscape:guide-bbox="true"
     inkscape:window-width="1920"
     inkscape:window-height="955"
     inkscape:window-x="0"
     inkscape:window-y="23"
     inkscape:window-maximized="1"
     inkscape:pagecheckerboard="0">
    <sodipodi:guide
       position="5.0113035,7.116051"
       orientation="0,1"
       id="guide4599"
       inkscape:locked="false" />
  </sodipodi:namedview>
  <metadata
     id="metadata5">
    <rdf:RDF>
      <cc:Work
         rdf:about="">
        <dc:format>image/svg+xml</dc:format>
        <dc:type
           rdf:resource="http://purl.org/dc/dcmitype/StillImage" />
      </cc:Work>
    </rdf:RDF>
  </metadata>
  <g
     inkscape:label="Layer 1"
     inkscape:groupmode="layer"
     id="layer1"
     transform="translate(0,-281)">
    <path
       d="m 0.55678875,293.45686 0.91523495,-0.0106 c 0.9593624,1.69905 1.8920719,2.88691 2.7981283,3.56358 0.3401548,0.0663 0.5889935,0.099 0.7465165,0.098 0.4559862,-0.003 0.9446604,-0.14178 1.4660225,-0.41735 l 0.4612717,0.32467 0.4354029,0.0385 c 1.2435982,-0.007 1.8628338,-0.74689 1.8577058,-2.21946 -2.374e-4,-0.0682 -0.00891,-0.17723 -0.026016,-0.32712 0.4638966,-0.11169 0.8112506,-0.35909 1.0420596,-0.74219 0.230856,-0.36947 0.345144,-0.88145 0.342865,-1.53595 -8.98e-4,-0.28635 -0.04769,-0.62017 -0.140286,-1.00144 0.37251,-0.16573 0.65349,-0.42639 0.842941,-0.78197 0.181159,-0.35556 0.270813,-0.79923 0.268961,-1.33102 -0.0014,-0.39543 -0.05232,-0.74285 -0.152865,-1.04226 -0.108775,-0.28574 -0.267153,-0.53029 -0.475131,-0.73366 l 0.447127,-0.16615 1.887334,-0.10698 c 0.961718,-0.005 1.68651,-0.1935 2.174377,-0.5645 0.479576,-0.37087 0.718106,-0.91764 0.71559,-1.64031 -0.0029,-0.84541 -0.23714,-1.43724 -0.702614,-1.7755 -0.465463,-0.33827 -1.282687,-0.50411 -2.451671,-0.49752 l -2.497625,-0.15484 -0.5125832,-0.77435 -3.4216785,-0.49204 c -1.5726145,0.75883 -2.9706738,1.64622 -4.1941779,2.66216 l -1.79819129,0.0151 c -0.43403923,1.54329 -0.64799609,3.19441 -0.64187065,4.95338 0.0054015,1.55444 0.20979052,3.10776 0.61316781,4.65997 z m 10.60549425,-10.02557 1.962878,0.15842 c 1.616679,-0.009 2.426538,0.42265 2.429579,1.29534 0.0013,0.38179 -0.246419,0.66953 -0.743168,0.86322 -0.505019,0.20739 -1.259114,0.31391 -2.262285,0.31957 l -0.233561,0.0364 c 0.08248,-0.12319 0.181373,-0.2942 0.296684,-0.51301 z m -10.18637394,8.95962 c -0.26142691,-1.26665 -0.39425366,-2.50675 -0.39848025,-3.72031 -0.004496,-1.28173 0.13615693,-2.55746 0.42194026,-3.82719 l 1.40023913,-0.0128 c 2.100985,-1.40268 3.5073826,-2.27648 4.2191929,-2.62139 l 3.1478739,0.43223 1.962707,2.93425 c -0.362938,0.53384 -0.776545,0.80206 -1.240822,0.80467 -0.7129972,0.004 -1.4239614,-0.59878 -2.1328931,-1.80833 -0.7519808,0.7133 -1.5342138,1.07224 -2.3466993,1.07682 l -0.2114829,-0.0193 0.028434,1.02252 0.2860995,0.0188 c 0.7461597,-0.004 1.4539907,-0.30116 2.1234932,-0.89147 0.4913328,0.62447 0.9447163,1.06507 1.3601519,1.3218 l -1.1191674,0.0268 c -0.2245604,-0.20327 -0.4447847,-0.35202 -0.6606737,-0.44625 -0.2158902,-0.0942 -0.4274687,-0.14076 -0.6347355,-0.13959 -0.9534266,0.005 -1.7088645,0.91636 -2.2663138,2.73309 l 0.8726565,0.60869 c -0.5461869,0.28943 -1.0450416,1.0763 -1.4965644,2.3606 l 0.7730259,0.56834 c -0.4620929,0.62985 -0.7953719,1.3476 -0.9998369,2.15326 l 1.5582745,1.07525 c -0.4224917,0.0978 -0.6959173,0.14709 -0.8202768,0.14779 -0.082907,4.7e-4 -0.2280888,-0.026 -0.4355454,-0.0793 -0.9649458,-0.92179 -1.823229,-2.16462 -2.5748498,-3.72849 z m 4.79552204,-3.52948 c 0.3119585,-0.88807 0.7829831,-1.33389 1.4130738,-1.33744 0.1823941,-6.7e-4 0.3691237,0.0528 0.5601889,0.16047 0.1827739,0.10806 0.3698836,0.27064 0.5613296,0.48773 l 1.6042418,-0.009 c 0.3399178,-10e-4 0.5971888,0.0722 0.7718148,0.22063 0.166383,0.16269 0.250121,0.40084 0.251214,0.71445 0.0015,0.43634 -0.121753,0.7643 -0.369662,0.98387 -0.247913,0.23321 -0.6164433,0.35119 -1.1055922,0.35395 l -1.3182853,-0.0131 z m -0.5742352,2.94856 c 0.2876564,-0.72432 0.7711405,-1.16339 1.4504524,-1.3172 l 1.2966211,0.93353 1.8155821,-0.0307 c 0.1254998,0.32655 0.1886764,0.61255 0.1895311,0.85799 0.00147,0.42269 -0.096904,0.74369 -0.2951158,0.96298 -0.2065068,0.21933 -0.5128811,0.33014 -0.9191223,0.33243 l -1.1193826,-0.0346 z m -0.2643332,2.66045 c 0.181018,-0.39646 0.4491352,-0.77977 0.8043516,-1.14993 l 1.6706259,1.19734 1.2062929,-0.007 c 0.00359,1.02266 -0.3801471,1.53616 -1.1512065,1.54051 l -0.4850753,-0.0178 z"
       style="font-style:normal;font-variant:normal;font-weight:normal;font-stretch:normal;font-size:30.4741px;line-height:1.25;font-family:Wingdings;-inkscape-font-specification:Wingdings;letter-spacing:0px;word-spacing:0px;fill:#ff4081;fill-opacity:1;stroke:none;stroke-width:1.56701;stroke-miterlimit:4;stroke-dasharray:none;stroke-opacity:1"
       id="path302"
       inkscape:connector-curvature="0"
       sodipodi:nodetypes="cccccccsccccccccccccccccccccccccccccccccccccccccccccccscccccccccccccccccccccccccccccccccccccc" />
  </g>
</svg>
