<?xml version="1.0" encoding="UTF-8" standalone="no"?>
<!-- Created with Inkscape (http://www.inkscape.org/) -->

<svg
   xmlns:dc="http://purl.org/dc/elements/1.1/"
   xmlns:cc="http://creativecommons.org/ns#"
   xmlns:rdf="http://www.w3.org/1999/02/22-rdf-syntax-ns#"
   xmlns:svg="http://www.w3.org/2000/svg"
   xmlns="http://www.w3.org/2000/svg"
   xmlns:sodipodi="http://sodipodi.sourceforge.net/DTD/sodipodi-0.dtd"
   xmlns:inkscape="http://www.inkscape.org/namespaces/inkscape"
   version="1.1"
   id="svg2"
   xml:space="preserve"
   width="48"
   height="64"
   viewBox="0 0 48.000001 63.999998"
   sodipodi:docname="print_onside.svg"
   inkscape:version="0.92.4 (5da689c313, 2019-01-14)"><metadata
     id="metadata8"><rdf:RDF><cc:Work
         rdf:about=""><dc:format>image/svg+xml</dc:format><dc:type
           rdf:resource="http://purl.org/dc/dcmitype/StillImage" /><dc:title></dc:title></cc:Work></rdf:RDF></metadata><defs
     id="defs6" /><sodipodi:namedview
     pagecolor="#ffffff"
     bordercolor="#666666"
     borderopacity="1"
     objecttolerance="10"
     gridtolerance="10"
     guidetolerance="10"
     inkscape:pageopacity="0"
     inkscape:pageshadow="2"
     inkscape:window-width="1920"
     inkscape:window-height="1017"
     id="namedview4"
     showgrid="false"
     inkscape:zoom="7.5232109"
     inkscape:cx="50.694268"
     inkscape:cy="30.097668"
     inkscape:window-x="-8"
     inkscape:window-y="-8"
     inkscape:window-maximized="1"
     inkscape:current-layer="g10" /><g
     id="g10"
     inkscape:groupmode="layer"
     inkscape:label="ink_ext_XXXXXX"
     transform="matrix(1.3333333,0,0,-1.3333333,0,63.999979)"
     style="display:inline"><path
       inkscape:connector-curvature="0"
       id="path78"
       style="fill:#ffffff;fill-opacity:1;fill-rule:nonzero;stroke:#ff4081;stroke-width:0.7873559;stroke-linecap:round;stroke-linejoin:round;stroke-miterlimit:4;stroke-dasharray:none;stroke-opacity:1"
       d="M 30.988342,5.7607304 H 21.099513 V 36.990936 l -3.762062,2.238126 V 5.5053135 H 7.4487561 V 45.112399 L 3.2567537,47.606342 V 0.39366219 H 35.50292 V 28.421441 l -4.514578,2.685954 V 5.7607304" /><path
       inkscape:connector-curvature="0"
       id="path80"
       style="fill:none;stroke:#ff4081;stroke-width:0.7873559;stroke-linecap:round;stroke-linejoin:round;stroke-miterlimit:4;stroke-dasharray:none;stroke-opacity:1"
       d="M 30.988342,5.7607304 H 21.099513 V 36.990936 l -3.762062,2.238126 V 5.5053135 H 7.4487561 V 45.112399 L 3.2567537,47.606342 V 0.39366219 H 35.50292 V 28.421441 l -4.514578,2.685954 z" /><path
       inkscape:connector-curvature="0"
       id="path82"
       style="fill:#ffffff;fill-opacity:1;fill-rule:nonzero;stroke:#ff4081;stroke-width:0.7873559;stroke-linecap:round;stroke-linejoin:round;stroke-miterlimit:4;stroke-dasharray:none;stroke-opacity:1"
       d="M 17.337451,5.5053135 V 39.229062 L 7.4487561,45.112399 V 5.5053135 h 9.8886949" /><path
       inkscape:connector-curvature="0"
       id="path84"
       style="fill:none;stroke:#ff4081;stroke-width:0.7873559;stroke-linecap:round;stroke-linejoin:round;stroke-miterlimit:4;stroke-dasharray:none;stroke-opacity:1"
       d="M 17.337451,5.5053135 V 39.229062 L 7.4487561,45.112399 V 5.5053135 Z" /><path
       inkscape:connector-curvature="0"
       id="path86"
       style="fill:#ffffff;fill-opacity:1;fill-rule:nonzero;stroke:#ff4081;stroke-width:0.7873559;stroke-linecap:round;stroke-linejoin:round;stroke-miterlimit:4;stroke-dasharray:none;stroke-opacity:1"
       d="M 30.988342,5.7607304 V 31.107395 l -9.888829,5.883541 V 5.7607304 h 9.888829" /><path
       inkscape:connector-curvature="0"
       id="path88"
       style="fill:none;stroke:#ff4081;stroke-width:0.7873559;stroke-linecap:round;stroke-linejoin:round;stroke-miterlimit:4;stroke-dasharray:none;stroke-opacity:1"
       d="M 30.988342,5.7607304 V 31.107395 l -9.888829,5.883541 V 5.7607304 Z" /><path
       inkscape:connector-curvature="0"
       id="path94"
       style="fill:#ffffff;fill-opacity:1;fill-rule:nonzero;stroke:#ff4081;stroke-width:0.7873559;stroke-linecap:round;stroke-linejoin:round;stroke-miterlimit:4;stroke-dasharray:none;stroke-opacity:1"
       d="m 31.092617,30.997358 -9.88696,5.887369 -3.761383,2.240151 L 7.5572263,45.012451 3.3660221,47.50801 0.39366845,44.863651 19.714383,14.170113 35.606345,28.309584 31.092617,30.997358" /><path
       inkscape:connector-curvature="0"
       id="path96"
       style="fill:none;stroke:#ff4081;stroke-width:0.7873559;stroke-linecap:round;stroke-linejoin:round;stroke-miterlimit:4;stroke-dasharray:none;stroke-opacity:1"
       d="m 31.092617,30.997358 -9.88696,5.887369 -3.761383,2.240151 L 7.5572263,45.012451 3.3660221,47.50801 0.39366845,44.863651 19.714383,14.170113 35.606345,28.309584 Z" /></g><g
     inkscape:groupmode="layer"
     id="layer1"
     inkscape:label="ink_ext_XXXXXX 1"
     style="display:inline"
     transform="translate(0,-939.82672)"><path
       inkscape:connector-curvature="0"
       id="path90"
       style="display:inline;fill:#231f20;fill-opacity:1;fill-rule:nonzero;stroke:none;stroke-width:1.39974391;stroke-miterlimit:4;stroke-dasharray:none;stroke-opacity:1"
       d="m 10.907922,990.95836 h 0.122074 c 0.823944,0 1.043567,-0.50746 1.061864,-0.89188 h 0.701713 v 5.14537 h -0.854288 v -3.54386 h -1.031363 v -0.70963" /><path
       inkscape:connector-curvature="0"
       id="path92"
       style="display:inline;fill:#231f20;fill-opacity:1;fill-rule:nonzero;stroke:none;stroke-width:1.39974391;stroke-miterlimit:4;stroke-dasharray:none;stroke-opacity:1"
       d="m 29.782292,991.23052 c 0,-1.67419 1.03143,-1.8193 1.415698,-1.8193 0.830127,0 1.489065,0.58015 1.489065,1.62359 0,0.88382 -0.48209,1.33366 -0.90304,1.67421 -0.573571,0.47811 -0.872923,0.71044 -0.970293,0.94923 h 1.879221 v 0.89861 h -2.959336 c 0.03056,-0.60168 0.06703,-1.23189 1.00675,-2.04328 0.780989,-0.6741 1.092342,-0.9355 1.092342,-1.51484 0,-0.34028 -0.182962,-0.73197 -0.598025,-0.73197 -0.598026,0 -0.616368,0.58686 -0.622482,0.96375 h -0.8299" /></g></svg>