<?xml version="1.0" encoding="UTF-8" standalone="no"?>
<!-- Created with Inkscape (http://www.inkscape.org/) -->

<svg
   xmlns:dc="http://purl.org/dc/elements/1.1/"
   xmlns:cc="http://creativecommons.org/ns#"
   xmlns:rdf="http://www.w3.org/1999/02/22-rdf-syntax-ns#"
   xmlns:svg="http://www.w3.org/2000/svg"
   xmlns="http://www.w3.org/2000/svg"
   xmlns:sodipodi="http://sodipodi.sourceforge.net/DTD/sodipodi-0.dtd"
   xmlns:inkscape="http://www.inkscape.org/namespaces/inkscape"
   version="1.1"
   id="svg2"
   xml:space="preserve"
   width="299.66666"
   height="1003.8267"
   viewBox="0 0 299.66666 1003.8267"
   sodipodi:docname="print_icons.svg"
   inkscape:version="0.92.3 (2405546, 2018-03-11)"><metadata
     id="metadata8"><rdf:RDF><cc:Work
         rdf:about=""><dc:format>image/svg+xml</dc:format><dc:type
           rdf:resource="http://purl.org/dc/dcmitype/StillImage" /><dc:title></dc:title></cc:Work></rdf:RDF></metadata><defs
     id="defs6" /><sodipodi:namedview
     pagecolor="#ffffff"
     bordercolor="#666666"
     borderopacity="1"
     objecttolerance="10"
     gridtolerance="10"
     guidetolerance="10"
     inkscape:pageopacity="0"
     inkscape:pageshadow="2"
     inkscape:window-width="756"
     inkscape:window-height="480"
     id="namedview4"
     showgrid="false"
     inkscape:zoom="0.23510034"
     inkscape:cx="149.83333"
     inkscape:cy="501.91336"
     inkscape:window-x="51"
     inkscape:window-y="27"
     inkscape:window-maximized="0"
     inkscape:current-layer="g10" /><g
     id="g10"
     inkscape:groupmode="layer"
     inkscape:label="ink_ext_XXXXXX"
     transform="matrix(1.3333333,0,0,-1.3333333,0,1003.8267)"><g
       id="g12"
       transform="scale(0.1)"><path
         d="M 1976.07,270.82 H 1393.8 v 1546.76 l -221.53,110.86 V 258.164 H 590 V 2219.82 L 343.164,2343.35 V 5 H 2241.91 v 1388.16 l -265.84,133.02 V 270.82"
         style="fill:#ffffff;fill-opacity:1;fill-rule:nonzero;stroke:none"
         id="path14"
         inkscape:connector-curvature="0" /><path
         d="M 1976.07,270.82 H 1393.8 v 1546.76 l -221.53,110.86 V 258.164 H 590 V 2219.82 L 343.164,2343.35 V 5 H 2241.91 v 1388.16 l -265.84,133.02 z"
         style="fill:none;stroke:#231f20;stroke-width:10;stroke-linecap:butt;stroke-linejoin:miter;stroke-miterlimit:4;stroke-dasharray:none;stroke-opacity:1"
         id="path16"
         inkscape:connector-curvature="0" /><path
         d="M 1172.27,258.164 V 1928.44 L 590,2219.82 V 258.164 h 582.27"
         style="fill:#ffffff;fill-opacity:1;fill-rule:nonzero;stroke:none"
         id="path18"
         inkscape:connector-curvature="0" /><path
         d="M 1172.27,258.164 V 1928.44 L 590,2219.82 V 258.164 Z"
         style="fill:none;stroke:#231f20;stroke-width:10;stroke-linecap:butt;stroke-linejoin:miter;stroke-miterlimit:4;stroke-dasharray:none;stroke-opacity:1"
         id="path20"
         inkscape:connector-curvature="0" /><path
         d="m 1976.07,270.82 v 1255.36 l -582.27,291.4 V 270.82 h 582.27"
         style="fill:#ffffff;fill-opacity:1;fill-rule:nonzero;stroke:none"
         id="path22"
         inkscape:connector-curvature="0" /><path
         d="m 1976.07,270.82 v 1255.36 l -582.27,291.4 V 270.82 Z"
         style="fill:none;stroke:#231f20;stroke-width:10;stroke-linecap:butt;stroke-linejoin:miter;stroke-miterlimit:4;stroke-dasharray:none;stroke-opacity:1"
         id="path24"
         inkscape:connector-curvature="0" /><path
         d="m 633.113,463.508 h 5.387 c 36.387,0 46.09,18.847 46.895,33.125 h 30.992 V 305.5 H 678.66 v 131.641 h -45.547 v 26.367"
         style="fill:#231f20;fill-opacity:1;fill-rule:nonzero;stroke:none"
         id="path26"
         inkscape:connector-curvature="0" /><path
         d="m 1522.68,428.391 h 5.92 c 11.33,0 32.08,1.062 32.08,25.839 0,7 -3.23,24.5 -23.99,24.5 -25.87,0 -25.87,-24.5 -25.87,-31.238 h -35.03 c 0,35.801 20.21,61.387 63.33,61.387 25.6,0 59.28,-12.93 59.28,-53.301 0,-19.387 -12.12,-31.496 -22.9,-36.34 v -0.547 c 6.73,-1.882 28.83,-11.843 28.83,-44.414 0,-36.074 -26.68,-61.64 -65.21,-61.64 -18.06,0 -66.57,4.023 -66.57,63.801 h 36.92 l -0.27,-0.286 c 0,-10.214 2.7,-33.367 28.03,-33.367 15.09,0 28.3,10.223 28.3,31.492 0,26.114 -25.34,27.18 -42.85,27.18 v 26.934"
         style="fill:#231f20;fill-opacity:1;fill-rule:nonzero;stroke:none"
         id="path28"
         inkscape:connector-curvature="0" /><path
         d="m 162.484,2215.98 174.668,131.44 247.121,-122.97 -91.324,-68.72 350.094,-465.26 324.177,243.92 221.77,-110.35 -422.861,-318.18 350.101,-465.27 655.7,493.39 266.11,-132.42 L 1304.13,698.789 162.484,2215.98"
         style="fill:#ffffff;fill-opacity:1;fill-rule:nonzero;stroke:none"
         id="path30"
         inkscape:connector-curvature="0" /><path
         d="m 162.484,2215.98 174.668,131.44 247.121,-122.97 -91.324,-68.72 350.094,-465.26 324.177,243.92 221.77,-110.35 -422.861,-318.18 350.101,-465.27 655.7,493.39 266.11,-132.42 -933.91,-702.771 z"
         style="fill:none;stroke:#231f20;stroke-width:10;stroke-linecap:butt;stroke-linejoin:miter;stroke-miterlimit:4;stroke-dasharray:none;stroke-opacity:1"
         id="path32"
         inkscape:connector-curvature="0" /><path
         d="m 843.043,1690.47 -350.094,465.26 91.324,68.72 582.947,-290.06 -324.177,-243.92"
         style="fill:#ffffff;fill-opacity:1;fill-rule:nonzero;stroke:none"
         id="path34"
         inkscape:connector-curvature="0" /><path
         d="m 843.043,1690.47 -350.094,465.26 91.324,68.72 582.947,-290.06 z"
         style="fill:none;stroke:#231f20;stroke-width:10;stroke-linecap:butt;stroke-linejoin:miter;stroke-miterlimit:4;stroke-dasharray:none;stroke-opacity:1"
         id="path36"
         inkscape:connector-curvature="0" /><path
         d="m 1316.23,1040.59 -350.101,465.27 422.861,318.18 582.94,-290.06 -655.7,-493.39"
         style="fill:#ffffff;fill-opacity:1;fill-rule:nonzero;stroke:none"
         id="path38"
         inkscape:connector-curvature="0" /><path
         d="m 1316.23,1040.59 -350.101,465.27 422.861,318.18 582.94,-290.06 z"
         style="fill:none;stroke:#231f20;stroke-width:10;stroke-linecap:butt;stroke-linejoin:miter;stroke-miterlimit:4;stroke-dasharray:none;stroke-opacity:1"
         id="path40"
         inkscape:connector-curvature="0" /><path
         d="m 841.391,1878.59 c -11.02,-8.64 -27.95,-22.38 -12.071,-43.49 11.012,-14.65 27.5,-12.35 37.61,-4.75 17.191,12.93 16.668,29.76 15.957,72.36 -0.879,51.29 16.875,66.68 33.906,81.18 l 78.59,-104.43 -26.684,-20.07 -49.91,66.31 c -4.492,-8.77 -3.457,-24.52 -2.398,-55.45 1.066,-22.45 0.523,-49.51 -25.715,-69.24 -30.973,-23.3 -65.68,-13.01 -87.719,16.29 -10.203,13.55 -33.285,53.19 16.414,90.58 l 22.02,-29.29"
         style="fill:#231f20;fill-opacity:1;fill-rule:nonzero;stroke:none"
         id="path42"
         inkscape:connector-curvature="0" /><path
         d="m 1377.29,1230.59 c -37.01,-27.84 -60.4,-46.46 -65.13,-50.01 l -0.32,0.45 36.77,87.67 z m 58.94,-29.52 -12.82,17.02 33.76,25.41 -22.67,30.15 -33.78,-25.42 -45.36,60.31 -26.04,-19.61 -50.62,-126.11 25.75,-34.25 95.52,71.88 12.8,-17.01 23.46,17.63"
         style="fill:#231f20;fill-opacity:1;fill-rule:nonzero;stroke:none"
         id="path44"
         inkscape:connector-curvature="0" /><path
         d="M 1838.67,2851.07 H 1256.39 V 4397.84 L 1034.87,4508.7 V 2838.42 H 452.594 V 4800.08 L 205.758,4923.61 V 2585.25 H 2104.5 v 1388.16 l -265.83,133.03 V 2851.07"
         style="fill:#ffffff;fill-opacity:1;fill-rule:nonzero;stroke:none"
         id="path46"
         inkscape:connector-curvature="0" /><path
         d="M 1838.67,2851.07 H 1256.39 V 4397.84 L 1034.87,4508.7 V 2838.42 H 452.594 V 4800.08 L 205.758,4923.61 V 2585.25 H 2104.5 v 1388.16 l -265.83,133.03 z"
         style="fill:none;stroke:#231f20;stroke-width:10;stroke-linecap:butt;stroke-linejoin:miter;stroke-miterlimit:4;stroke-dasharray:none;stroke-opacity:1"
         id="path48"
         inkscape:connector-curvature="0" /><path
         d="M 1034.87,2838.42 V 4508.7 L 452.594,4800.08 V 2838.42 h 582.276"
         style="fill:#ffffff;fill-opacity:1;fill-rule:nonzero;stroke:none"
         id="path50"
         inkscape:connector-curvature="0" /><path
         d="M 1034.87,2838.42 V 4508.7 L 452.594,4800.08 V 2838.42 Z"
         style="fill:none;stroke:#231f20;stroke-width:10;stroke-linecap:butt;stroke-linejoin:miter;stroke-miterlimit:4;stroke-dasharray:none;stroke-opacity:1"
         id="path52"
         inkscape:connector-curvature="0" /><path
         d="m 1838.67,2851.07 v 1255.37 l -582.28,291.4 V 2851.07 h 582.28"
         style="fill:#ffffff;fill-opacity:1;fill-rule:nonzero;stroke:none"
         id="path54"
         inkscape:connector-curvature="0" /><path
         d="m 1838.67,2851.07 v 1255.37 l -582.28,291.4 V 2851.07 Z"
         style="fill:none;stroke:#231f20;stroke-width:10;stroke-linecap:butt;stroke-linejoin:miter;stroke-miterlimit:4;stroke-dasharray:none;stroke-opacity:1"
         id="path56"
         inkscape:connector-curvature="0" /><path
         d="m 495.707,3043.77 h 5.387 c 36.386,0 46.09,18.85 46.894,33.12 h 30.992 v -191.13 h -37.726 v 131.64 h -45.547 v 26.37"
         style="fill:#231f20;fill-opacity:1;fill-rule:nonzero;stroke:none"
         id="path58"
         inkscape:connector-curvature="0" /><path
         d="m 1329.23,3033.65 c 0,62.19 45.55,67.58 62.52,67.58 36.66,0 65.76,-21.54 65.76,-60.31 0,-32.83 -21.29,-49.53 -39.88,-62.19 -25.33,-17.75 -38.54,-26.39 -42.85,-35.25 h 83 v -33.38 h -130.7 c 1.35,22.34 2.96,45.76 44.47,75.9 34.49,25.04 48.24,34.74 48.24,56.27 0,12.63 -8.09,27.18 -26.41,27.18 -26.41,0 -27.23,-21.79 -27.5,-35.8 h -36.65"
         style="fill:#231f20;fill-opacity:1;fill-rule:nonzero;stroke:none"
         id="path60"
         inkscape:connector-curvature="0" /><path
         d="m 37.168,4787.76 175.02,130.97 246.792,-123.6 -91.515,-68.49 348.879,-466.18 324.806,243.07 221.48,-110.95 -423.689,-317.07 348.879,-466.17 656.98,491.65 265.79,-133.11 -935.77,-700.3 L 37.168,4787.76"
         style="fill:#ffffff;fill-opacity:1;fill-rule:nonzero;stroke:none"
         id="path62"
         inkscape:connector-curvature="0" /><path
         d="m 37.168,4787.76 175.02,130.97 246.792,-123.6 -91.515,-68.49 348.879,-466.18 324.806,243.07 221.48,-110.95 -423.689,-317.07 348.879,-466.17 656.98,491.65 265.79,-133.11 -935.77,-700.3 z"
         style="fill:none;stroke:#231f20;stroke-width:10;stroke-linecap:butt;stroke-linejoin:miter;stroke-miterlimit:4;stroke-dasharray:none;stroke-opacity:1"
         id="path64"
         inkscape:connector-curvature="0" /><path
         d="m 716.344,4260.46 -348.879,466.18 91.515,68.49 582.17,-291.6 -324.806,-243.07"
         style="fill:#ffffff;fill-opacity:1;fill-rule:nonzero;stroke:none"
         id="path66"
         inkscape:connector-curvature="0" /><path
         d="m 716.344,4260.46 -348.879,466.18 91.515,68.49 582.17,-291.6 z"
         style="fill:none;stroke:#231f20;stroke-width:10;stroke-linecap:butt;stroke-linejoin:miter;stroke-miterlimit:4;stroke-dasharray:none;stroke-opacity:1"
         id="path68"
         inkscape:connector-curvature="0" /><path
         d="m 1187.82,3609.34 -348.879,466.17 423.689,317.07 582.17,-291.59 -656.98,-491.65"
         style="fill:#ffffff;fill-opacity:1;fill-rule:nonzero;stroke:none"
         id="path70"
         inkscape:connector-curvature="0" /><path
         d="m 1187.82,3609.34 -348.879,466.17 423.689,317.07 582.17,-291.59 z"
         style="fill:none;stroke:#231f20;stroke-width:10;stroke-linecap:butt;stroke-linejoin:miter;stroke-miterlimit:4;stroke-dasharray:none;stroke-opacity:1"
         id="path72"
         inkscape:connector-curvature="0" /><path
         d="m 747.031,4454.59 c 10.492,-14.02 26.532,-33.67 47.438,-18.02 17.031,12.74 17.304,29.44 8.265,41.53 -15.179,20.28 -35.336,8.56 -43.515,2.44 l -0.063,-0.39 -22.125,29.56 c 47.856,35.81 80.141,-0.6 90.961,-15.07 23.09,-30.85 18.61,-67.51 -10.277,-89.14 -26.07,-19.51 -47.285,-7.79 -52.828,-3.53 l -0.438,-0.33 c 2.578,-11.53 0.145,-28.49 -15.371,-40.1 -32.332,-24.19 -62.863,-4.97 -78.199,15.53 -25.836,34.52 -17.461,66.03 11.199,87.48 l 20.992,-28.05 c -5.39,-4.04 -25.007,-18.72 -9.511,-39.43 12.437,-16.62 28.382,-8.71 33.996,-4.52 19.828,14.84 8.246,32.09 1.468,41.16 l -3.55,4.75 21.558,16.13"
         style="fill:#231f20;fill-opacity:1;fill-rule:nonzero;stroke:none"
         id="path74"
         inkscape:connector-curvature="0" /><path
         d="m 1249.37,3799.17 c -37.06,-27.74 -60.52,-46.3 -65.24,-49.84 l -0.33,0.44 36.99,87.6 z m 58.86,-29.67 -12.76,17.05 33.84,25.32 -22.61,30.21 -33.83,-25.32 -45.21,60.41 -26.1,-19.53 -50.95,-125.98 25.66,-34.31 95.71,71.62 12.75,-17.05 23.5,17.58"
         style="fill:#231f20;fill-opacity:1;fill-rule:nonzero;stroke:none"
         id="path76"
         inkscape:connector-curvature="0" /><path
         d="m 1808.49,5448.11 h -582.28 v 1546.77 l -221.52,110.85 V 5435.46 H 422.418 V 7397.12 L 175.582,7520.64 V 5182.29 H 2074.32 v 1388.16 l -265.83,133.03 V 5448.11"
         style="fill:#ffffff;fill-opacity:1;fill-rule:nonzero;stroke:none"
         id="path78"
         inkscape:connector-curvature="0" /><path
         d="m 1808.49,5448.11 h -582.28 v 1546.77 l -221.52,110.85 V 5435.46 H 422.418 V 7397.12 L 175.582,7520.64 V 5182.29 H 2074.32 v 1388.16 l -265.83,133.03 z"
         style="fill:none;stroke:#231f20;stroke-width:10;stroke-linecap:butt;stroke-linejoin:miter;stroke-miterlimit:4;stroke-dasharray:none;stroke-opacity:1"
         id="path80"
         inkscape:connector-curvature="0" /><path
         d="M 1004.69,5435.46 V 7105.73 L 422.418,7397.12 V 5435.46 h 582.272"
         style="fill:#ffffff;fill-opacity:1;fill-rule:nonzero;stroke:none"
         id="path82"
         inkscape:connector-curvature="0" /><path
         d="M 1004.69,5435.46 V 7105.73 L 422.418,7397.12 V 5435.46 Z"
         style="fill:none;stroke:#231f20;stroke-width:10;stroke-linecap:butt;stroke-linejoin:miter;stroke-miterlimit:4;stroke-dasharray:none;stroke-opacity:1"
         id="path84"
         inkscape:connector-curvature="0" /><path
         d="m 1808.49,5448.11 v 1255.37 l -582.28,291.4 V 5448.11 h 582.28"
         style="fill:#ffffff;fill-opacity:1;fill-rule:nonzero;stroke:none"
         id="path86"
         inkscape:connector-curvature="0" /><path
         d="m 1808.49,5448.11 v 1255.37 l -582.28,291.4 V 5448.11 Z"
         style="fill:none;stroke:#231f20;stroke-width:10;stroke-linecap:butt;stroke-linejoin:miter;stroke-miterlimit:4;stroke-dasharray:none;stroke-opacity:1"
         id="path88"
         inkscape:connector-curvature="0" /><path
         d="m 465.531,5640.8 h 5.391 c 36.387,0 46.086,18.85 46.894,33.13 h 30.989 V 5482.8 h -37.727 v 131.64 h -45.547 v 26.36"
         style="fill:#231f20;fill-opacity:1;fill-rule:nonzero;stroke:none"
         id="path90"
         inkscape:connector-curvature="0" /><path
         d="m 1299.06,5630.69 c 0,62.19 45.55,67.58 62.52,67.58 36.66,0 65.76,-21.55 65.76,-60.31 0,-32.83 -21.29,-49.54 -39.88,-62.19 -25.33,-17.76 -38.55,-26.39 -42.85,-35.26 h 82.99 v -33.38 h -130.69 c 1.35,22.35 2.96,45.76 44.46,75.9 34.49,25.04 48.24,34.75 48.24,56.27 0,12.64 -8.08,27.19 -26.41,27.19 -26.41,0 -27.22,-21.8 -27.49,-35.8 h -36.65"
         style="fill:#231f20;fill-opacity:1;fill-rule:nonzero;stroke:none"
         id="path92"
         inkscape:connector-curvature="0" /><path
         d="m 1814.63,6698.03 -582.17,291.59 -221.48,110.95 -582.175,291.6 -246.789,123.6 L 6.99609,7384.8 1144.65,5864.61 l 935.76,700.3 -265.78,133.12"
         style="fill:#ffffff;fill-opacity:1;fill-rule:nonzero;stroke:none"
         id="path94"
         inkscape:connector-curvature="0" /><path
         d="m 1814.63,6698.03 -582.17,291.59 -221.48,110.95 -582.175,291.6 -246.789,123.6 L 6.99609,7384.8 1144.65,5864.61 l 935.76,700.3 z"
         style="fill:none;stroke:#231f20;stroke-width:10;stroke-linecap:butt;stroke-linejoin:miter;stroke-miterlimit:4;stroke-dasharray:none;stroke-opacity:1"
         id="path96"
         inkscape:connector-curvature="0" /></g></g></svg>