<?xml version="1.0" encoding="UTF-8" standalone="no"?>
<!-- Created with Inkscape (http://www.inkscape.org/) -->

<svg
   xmlns:dc="http://purl.org/dc/elements/1.1/"
   xmlns:cc="http://creativecommons.org/ns#"
   xmlns:rdf="http://www.w3.org/1999/02/22-rdf-syntax-ns#"
   xmlns:svg="http://www.w3.org/2000/svg"
   xmlns="http://www.w3.org/2000/svg"
   xmlns:sodipodi="http://sodipodi.sourceforge.net/DTD/sodipodi-0.dtd"
   xmlns:inkscape="http://www.inkscape.org/namespaces/inkscape"
   version="1.1"
   id="svg2"
   xml:space="preserve"
   width="299.66666"
   height="1003.8267"
   viewBox="0 0 299.66666 1003.8267"
   sodipodi:docname="print_icons.svg"
   inkscape:version="0.92.4 (5da689c313, 2019-01-14)"><metadata
     id="metadata8"><rdf:RDF><cc:Work
         rdf:about=""><dc:format>image/svg+xml</dc:format><dc:type
           rdf:resource="http://purl.org/dc/dcmitype/StillImage" /><dc:title /></cc:Work></rdf:RDF></metadata><defs
     id="defs6" /><sodipodi:namedview
     pagecolor="#ffffff"
     bordercolor="#666666"
     borderopacity="1"
     objecttolerance="10"
     gridtolerance="10"
     guidetolerance="10"
     inkscape:pageopacity="0"
     inkscape:pageshadow="2"
     inkscape:window-width="1920"
     inkscape:window-height="1017"
     id="namedview4"
     showgrid="false"
     inkscape:zoom="0.66496418"
     inkscape:cx="-342.81529"
     inkscape:cy="424.4297"
     inkscape:window-x="-8"
     inkscape:window-y="-8"
     inkscape:window-maximized="1"
     inkscape:current-layer="layer1" /><g
     id="g10"
     inkscape:groupmode="layer"
     inkscape:label="ink_ext_XXXXXX"
     transform="matrix(1.3333333,0,0,-1.3333333,0,1003.8267)"
     style="display:inline"
     sodipodi:insensitive="true"><path
       inkscape:connector-curvature="0"
       id="path14"
       style="fill:#ffffff;fill-opacity:1;fill-rule:nonzero;stroke:#ff4081;stroke-width:4.25196838;stroke-linecap:round;stroke-linejoin:round;stroke-miterlimit:4;stroke-dasharray:none;stroke-opacity:1"
       d="M 197.607,27.082 H 139.38 v 154.676 l -22.153,11.086 V 25.8164 H 59 V 221.982 L 34.3164,234.335 V 0.5 H 224.191 v 138.816 l -26.584,13.302 V 27.082" /><path
       inkscape:connector-curvature="0"
       id="path16"
       style="fill:none;stroke:#ff4081;stroke-width:4.25196838;stroke-linecap:round;stroke-linejoin:round;stroke-miterlimit:4;stroke-dasharray:none;stroke-opacity:1"
       d="M 197.607,27.082 H 139.38 v 154.676 l -22.153,11.086 V 25.8164 H 59 V 221.982 L 34.3164,234.335 V 0.5 H 224.191 v 138.816 l -26.584,13.302 z" /><path
       inkscape:connector-curvature="0"
       id="path18"
       style="fill:#ffffff;fill-opacity:1;fill-rule:nonzero;stroke:#ff4081;stroke-width:4.25196838;stroke-linecap:round;stroke-linejoin:round;stroke-miterlimit:4;stroke-dasharray:none;stroke-opacity:1"
       d="M 117.227,25.8164 V 192.844 L 59,221.982 V 25.8164 h 58.227" /><path
       inkscape:connector-curvature="0"
       id="path20"
       style="fill:none;stroke:#ff4081;stroke-width:4.25196838;stroke-linecap:round;stroke-linejoin:round;stroke-miterlimit:4;stroke-dasharray:none;stroke-opacity:1"
       d="M 117.227,25.8164 V 192.844 L 59,221.982 V 25.8164 Z" /><path
       inkscape:connector-curvature="0"
       id="path22"
       style="fill:#ffffff;fill-opacity:1;fill-rule:nonzero;stroke:#ff4081;stroke-width:4.25196838;stroke-linecap:round;stroke-linejoin:round;stroke-miterlimit:4;stroke-dasharray:none;stroke-opacity:1"
       d="m 197.607,27.082 v 125.536 l -58.227,29.14 V 27.082 h 58.227" /><path
       inkscape:connector-curvature="0"
       id="path24"
       style="fill:none;stroke:#ff4081;stroke-width:4.25196838;stroke-linecap:round;stroke-linejoin:round;stroke-miterlimit:4;stroke-dasharray:none;stroke-opacity:1"
       d="m 197.607,27.082 v 125.536 l -58.227,29.14 V 27.082 Z" /><path
       inkscape:connector-curvature="0"
       id="path30"
       style="fill:#ffffff;fill-opacity:1;fill-rule:nonzero;stroke:#ff4081;stroke-width:4.25196838;stroke-linecap:round;stroke-linejoin:round;stroke-miterlimit:4;stroke-dasharray:none;stroke-opacity:1"
       d="m 16.2484,221.598 17.4668,13.144 24.7121,-12.297 -9.1324,-6.872 35.0094,-46.526 32.4177,24.392 22.177,-11.035 -42.2861,-31.818 35.0101,-46.527 65.57,49.339 26.611,-13.242 L 130.413,69.8789 16.2484,221.598" /><path
       inkscape:connector-curvature="0"
       id="path32"
       style="fill:none;stroke:#ff4081;stroke-width:4.25196838;stroke-linecap:round;stroke-linejoin:round;stroke-miterlimit:4;stroke-dasharray:none;stroke-opacity:1"
       d="m 16.2484,221.598 17.4668,13.144 24.7121,-12.297 -9.1324,-6.872 35.0094,-46.526 32.4177,24.392 22.177,-11.035 -42.2861,-31.818 35.0101,-46.527 65.57,49.339 26.611,-13.242 -93.391,-70.2771 z" /><path
       inkscape:connector-curvature="0"
       id="path34"
       style="fill:#ffffff;fill-opacity:1;fill-rule:nonzero;stroke:#ff4081;stroke-width:4.25196838;stroke-linecap:round;stroke-linejoin:round;stroke-miterlimit:4;stroke-dasharray:none;stroke-opacity:1"
       d="m 84.3043,169.047 -35.0094,46.526 9.1324,6.872 58.2947,-29.006 -32.4177,-24.392" /><path
       inkscape:connector-curvature="0"
       id="path36"
       style="fill:none;stroke:#ff4081;stroke-width:4.25196838;stroke-linecap:round;stroke-linejoin:round;stroke-miterlimit:4;stroke-dasharray:none;stroke-opacity:1"
       d="m 84.3043,169.047 -35.0094,46.526 9.1324,6.872 58.2947,-29.006 z" /><path
       inkscape:connector-curvature="0"
       id="path38"
       style="fill:#ffffff;fill-opacity:1;fill-rule:nonzero;stroke:#ff4081;stroke-width:4.25196838;stroke-linecap:round;stroke-linejoin:round;stroke-miterlimit:4;stroke-dasharray:none;stroke-opacity:1"
       d="m 131.623,104.059 -35.0101,46.527 42.2861,31.818 58.294,-29.006 -65.57,-49.339" /><path
       inkscape:connector-curvature="0"
       id="path40"
       style="fill:none;stroke:#ff4081;stroke-width:4.25196838;stroke-linecap:round;stroke-linejoin:round;stroke-miterlimit:4;stroke-dasharray:none;stroke-opacity:1"
       d="m 131.623,104.059 -35.0101,46.527 42.2861,31.818 58.294,-29.006 z" /><path
       inkscape:connector-curvature="0"
       id="path46"
       style="fill:#ffffff;fill-opacity:1;fill-rule:nonzero;stroke:#ff4081;stroke-width:4.25196838;stroke-linecap:round;stroke-linejoin:round;stroke-miterlimit:4;stroke-dasharray:none;stroke-opacity:1"
       d="M 183.867,285.107 H 125.639 V 439.784 L 103.487,450.87 V 283.842 H 45.2594 V 480.008 L 20.5758,492.361 V 258.525 H 210.45 v 138.816 l -26.583,13.303 V 285.107" /><path
       inkscape:connector-curvature="0"
       id="path48"
       style="fill:none;stroke:#ff4081;stroke-width:4.25196838;stroke-linecap:round;stroke-linejoin:round;stroke-miterlimit:4;stroke-dasharray:none;stroke-opacity:1"
       d="M 183.867,285.107 H 125.639 V 439.784 L 103.487,450.87 V 283.842 H 45.2594 V 480.008 L 20.5758,492.361 V 258.525 H 210.45 v 138.816 l -26.583,13.303 z" /><path
       inkscape:connector-curvature="0"
       id="path50"
       style="fill:#ffffff;fill-opacity:1;fill-rule:nonzero;stroke:#ff4081;stroke-width:4.25196838;stroke-linecap:round;stroke-linejoin:round;stroke-miterlimit:4;stroke-dasharray:none;stroke-opacity:1"
       d="M 103.487,283.842 V 450.87 L 45.2594,480.008 V 283.842 h 58.2276" /><path
       inkscape:connector-curvature="0"
       id="path52"
       style="fill:none;stroke:#ff4081;stroke-width:4.25196838;stroke-linecap:round;stroke-linejoin:round;stroke-miterlimit:4;stroke-dasharray:none;stroke-opacity:1"
       d="M 103.487,283.842 V 450.87 L 45.2594,480.008 V 283.842 Z" /><path
       inkscape:connector-curvature="0"
       id="path54"
       style="fill:#ffffff;fill-opacity:1;fill-rule:nonzero;stroke:#ff4081;stroke-width:4.25196838;stroke-linecap:round;stroke-linejoin:round;stroke-miterlimit:4;stroke-dasharray:none;stroke-opacity:1"
       d="m 183.867,285.107 v 125.537 l -58.228,29.14 V 285.107 h 58.228" /><path
       inkscape:connector-curvature="0"
       id="path56"
       style="fill:none;stroke:#ff4081;stroke-width:4.25196838;stroke-linecap:round;stroke-linejoin:round;stroke-miterlimit:4;stroke-dasharray:none;stroke-opacity:1"
       d="m 183.867,285.107 v 125.537 l -58.228,29.14 V 285.107 Z" /><path
       inkscape:connector-curvature="0"
       id="path62"
       style="fill:#ffffff;fill-opacity:1;fill-rule:nonzero;stroke:#ff4081;stroke-width:4.25196838;stroke-linecap:round;stroke-linejoin:round;stroke-miterlimit:4;stroke-dasharray:none;stroke-opacity:1"
       d="m 3.7168,478.776 17.502,13.097 24.6792,-12.36 -9.1515,-6.849 34.8879,-46.618 32.4806,24.307 22.148,-11.095 -42.3689,-31.707 34.8879,-46.617 65.698,49.165 26.579,-13.311 -93.577,-70.03 L 3.7168,478.776" /><path
       inkscape:connector-curvature="0"
       id="path64"
       style="fill:none;stroke:#ff4081;stroke-width:4.25196838;stroke-linecap:round;stroke-linejoin:round;stroke-miterlimit:4;stroke-dasharray:none;stroke-opacity:1"
       d="m 3.7168,478.776 17.502,13.097 24.6792,-12.36 -9.1515,-6.849 34.8879,-46.618 32.4806,24.307 22.148,-11.095 -42.3689,-31.707 34.8879,-46.617 65.698,49.165 26.579,-13.311 -93.577,-70.03 z" /><path
       inkscape:connector-curvature="0"
       id="path66"
       style="fill:#ffffff;fill-opacity:1;fill-rule:nonzero;stroke:#ff4081;stroke-width:4.25196838;stroke-linecap:round;stroke-linejoin:round;stroke-miterlimit:4;stroke-dasharray:none;stroke-opacity:1"
       d="m 71.6344,426.046 -34.8879,46.618 9.1515,6.849 58.217,-29.16 -32.4806,-24.307" /><path
       inkscape:connector-curvature="0"
       id="path68"
       style="fill:none;stroke:#ff4081;stroke-width:4.25196838;stroke-linecap:round;stroke-linejoin:round;stroke-miterlimit:4;stroke-dasharray:none;stroke-opacity:1"
       d="m 71.6344,426.046 -34.8879,46.618 9.1515,6.849 58.217,-29.16 z" /><path
       inkscape:connector-curvature="0"
       id="path70"
       style="fill:#ffffff;fill-opacity:1;fill-rule:nonzero;stroke:#ff4081;stroke-width:4.25196838;stroke-linecap:round;stroke-linejoin:round;stroke-miterlimit:4;stroke-dasharray:none;stroke-opacity:1"
       d="m 118.782,360.934 -34.8879,46.617 42.3689,31.707 58.217,-29.159 -65.698,-49.165" /><path
       inkscape:connector-curvature="0"
       id="path72"
       style="fill:none;stroke:#ff4081;stroke-width:4.25196838;stroke-linecap:round;stroke-linejoin:round;stroke-miterlimit:4;stroke-dasharray:none;stroke-opacity:1"
       d="m 118.782,360.934 -34.8879,46.617 42.3689,31.707 58.217,-29.159 z" /><path
       inkscape:connector-curvature="0"
       id="path78"
       style="fill:#ffffff;fill-opacity:1;fill-rule:nonzero;stroke:#ff4081;stroke-width:4.25196838;stroke-linecap:round;stroke-linejoin:round;stroke-miterlimit:4;stroke-dasharray:none;stroke-opacity:1"
       d="m 180.849,544.811 h -58.228 v 154.677 l -22.152,11.085 V 543.546 H 42.2418 V 739.712 L 17.5582,752.064 V 518.229 H 207.432 v 138.816 l -26.583,13.303 V 544.811" /><path
       inkscape:connector-curvature="0"
       id="path80"
       style="fill:none;stroke:#ff4081;stroke-width:4.25196838;stroke-linecap:round;stroke-linejoin:round;stroke-miterlimit:4;stroke-dasharray:none;stroke-opacity:1"
       d="m 180.849,544.811 h -58.228 v 154.677 l -22.152,11.085 V 543.546 H 42.2418 V 739.712 L 17.5582,752.064 V 518.229 H 207.432 v 138.816 l -26.583,13.303 z" /><path
       inkscape:connector-curvature="0"
       id="path82"
       style="fill:#ffffff;fill-opacity:1;fill-rule:nonzero;stroke:#ff4081;stroke-width:4.25196838;stroke-linecap:round;stroke-linejoin:round;stroke-miterlimit:4;stroke-dasharray:none;stroke-opacity:1"
       d="M 100.469,543.546 V 710.573 L 42.2418,739.712 V 543.546 h 58.2272" /><path
       inkscape:connector-curvature="0"
       id="path84"
       style="fill:none;stroke:#ff4081;stroke-width:4.25196838;stroke-linecap:round;stroke-linejoin:round;stroke-miterlimit:4;stroke-dasharray:none;stroke-opacity:1"
       d="M 100.469,543.546 V 710.573 L 42.2418,739.712 V 543.546 Z" /><path
       inkscape:connector-curvature="0"
       id="path86"
       style="fill:#ffffff;fill-opacity:1;fill-rule:nonzero;stroke:#ff4081;stroke-width:4.25196838;stroke-linecap:round;stroke-linejoin:round;stroke-miterlimit:4;stroke-dasharray:none;stroke-opacity:1"
       d="m 180.849,544.811 v 125.537 l -58.228,29.14 V 544.811 h 58.228" /><path
       inkscape:connector-curvature="0"
       id="path88"
       style="fill:none;stroke:#ff4081;stroke-width:4.25196838;stroke-linecap:round;stroke-linejoin:round;stroke-miterlimit:4;stroke-dasharray:none;stroke-opacity:1"
       d="m 180.849,544.811 v 125.537 l -58.228,29.14 V 544.811 Z" /><path
       inkscape:connector-curvature="0"
       id="path94"
       style="fill:#ffffff;fill-opacity:1;fill-rule:nonzero;stroke:#ff4081;stroke-width:4.25196838;stroke-linecap:round;stroke-linejoin:round;stroke-miterlimit:4;stroke-dasharray:none;stroke-opacity:1"
       d="m 181.463,669.803 -58.217,29.159 -22.148,11.095 -58.2175,29.16 -24.6789,12.36 L 0.699609,738.48 114.465,586.461 l 93.576,70.03 -26.578,13.312" /><path
       inkscape:connector-curvature="0"
       id="path96"
       style="fill:none;stroke:#ff4081;stroke-width:4.25196838;stroke-linecap:round;stroke-linejoin:round;stroke-miterlimit:4;stroke-dasharray:none;stroke-opacity:1"
       d="m 181.463,669.803 -58.217,29.159 -22.148,11.095 -58.2175,29.16 -24.6789,12.36 L 0.699609,738.48 114.465,586.461 l 93.576,70.03 z" /></g><g
     inkscape:groupmode="layer"
     id="layer1"
     inkscape:label="ink_ext_XXXXXX 1"
     style="display:inline"><path
       transform="matrix(1.3333333,0,0,-1.3333333,0,1003.8267)"
       inkscape:connector-curvature="0"
       id="path90"
       style="display:inline;fill:#231f20;fill-opacity:1;fill-rule:nonzero;stroke:none;stroke-width:5.6692915;stroke-miterlimit:4;stroke-dasharray:none;stroke-opacity:1"
       d="m 46.5531,564.08 h 0.5391 c 3.6387,0 4.6086,1.885 4.6894,3.313 h 3.0989 V 548.28 h -3.7727 v 13.164 h -4.5547 v 2.636" /><path
       transform="matrix(1.3333333,0,0,-1.3333333,0,1003.8267)"
       inkscape:connector-curvature="0"
       id="path92"
       style="display:inline;fill:#231f20;fill-opacity:1;fill-rule:nonzero;stroke:none;stroke-width:5.6692915;stroke-miterlimit:4;stroke-dasharray:none;stroke-opacity:1"
       d="m 129.906,563.069 c 0,6.219 4.555,6.758 6.252,6.758 3.666,0 6.576,-2.155 6.576,-6.031 0,-3.283 -2.129,-4.954 -3.988,-6.219 -2.533,-1.776 -3.855,-2.639 -4.285,-3.526 h 8.299 v -3.338 h -13.069 c 0.135,2.235 0.296,4.576 4.446,7.59 3.449,2.504 4.824,3.475 4.824,5.627 0,1.264 -0.808,2.719 -2.641,2.719 -2.641,0 -2.722,-2.18 -2.749,-3.58 h -3.665" /><path
       transform="matrix(1.3333333,0,0,-1.3333333,0,1003.8267)"
       inkscape:connector-curvature="0"
       id="path26"
       style="display:inline;fill:#231f20;fill-opacity:1;fill-rule:nonzero;stroke:none;stroke-width:5.6692915;stroke-miterlimit:4;stroke-dasharray:none;stroke-opacity:1"
       d="M 63.3113,46.3508 H 63.85 c 3.6387,0 4.609,1.8847 4.6895,3.3125 h 3.0992 V 30.55 H 67.866 v 13.1641 h -4.5547 v 2.6367" /><path
       transform="matrix(1.3333333,0,0,-1.3333333,0,1003.8267)"
       inkscape:connector-curvature="0"
       id="path28"
       style="display:inline;fill:#231f20;fill-opacity:1;fill-rule:nonzero;stroke:none;stroke-width:5.6692915;stroke-miterlimit:4;stroke-dasharray:none;stroke-opacity:1"
       d="m 152.268,42.8391 h 0.592 c 1.133,0 3.208,0.1062 3.208,2.5839 0,0.7 -0.323,2.45 -2.399,2.45 -2.587,0 -2.587,-2.45 -2.587,-3.1238 h -3.503 c 0,3.5801 2.021,6.1387 6.333,6.1387 2.56,0 5.928,-1.293 5.928,-5.3301 0,-1.9387 -1.212,-3.1496 -2.29,-3.634 v -0.0547 c 0.673,-0.1882 2.883,-1.1843 2.883,-4.4414 0,-3.6074 -2.668,-6.164 -6.521,-6.164 -1.806,0 -6.657,0.4023 -6.657,6.3801 h 3.692 l -0.027,-0.0286 c 0,-1.0214 0.27,-3.3367 2.803,-3.3367 1.509,0 2.83,1.0223 2.83,3.1492 0,2.6114 -2.534,2.718 -4.285,2.718 v 2.6934" /><path
       inkscape:connector-curvature="0"
       id="path42"
       style="display:inline;fill:#231f20;fill-opacity:1;fill-rule:nonzero;stroke:none;stroke-width:7.55905533;stroke-miterlimit:4;stroke-dasharray:none;stroke-opacity:1"
       d="m 116.40258,758.68862 c -1.46131,1.16215 -3.76682,2.93314 -6.01382,0.22097 -1.55962,-1.88119 -0.75153,-3.94856 0.54676,-5.02484 2.20852,-1.82989 4.37519,-1.2417 9.87838,0.16763 6.6251,1.69979 9.17008,-0.12705 11.57728,-1.88765 l -11.11462,-13.42183 -3.42808,2.84037 7.05723,8.52345 c -1.27635,0.31146 -3.28711,-0.30973 -7.26596,-1.40338 -2.87878,-0.83238 -6.40523,-1.59856 -9.77542,1.19443 -3.97962,3.29679 -3.71809,8.1164 -0.59931,11.88073 1.44197,1.74227 5.86959,5.96157 12.25563,0.67169 l -3.11807,-3.76157" /><path
       transform="matrix(1.3333333,0,0,-1.3333333,0,1003.8267)"
       inkscape:connector-curvature="0"
       id="path58"
       style="display:inline;fill:#231f20;fill-opacity:1;fill-rule:nonzero;stroke:none;stroke-width:5.6692915;stroke-miterlimit:4;stroke-dasharray:none;stroke-opacity:1"
       d="m 49.5707,304.377 h 0.5387 c 3.6386,0 4.609,1.885 4.6894,3.312 h 3.0992 v -19.113 h -3.7726 v 13.164 h -4.5547 v 2.637" /><path
       transform="matrix(1.3333333,0,0,-1.3333333,0,1003.8267)"
       inkscape:connector-curvature="0"
       id="path60"
       style="display:inline;fill:#231f20;fill-opacity:1;fill-rule:nonzero;stroke:none;stroke-width:5.6692915;stroke-miterlimit:4;stroke-dasharray:none;stroke-opacity:1"
       d="m 132.923,303.365 c 0,6.219 4.555,6.758 6.252,6.758 3.666,0 6.576,-2.154 6.576,-6.031 0,-3.283 -2.129,-4.953 -3.988,-6.219 -2.533,-1.775 -3.854,-2.639 -4.285,-3.525 h 8.3 v -3.338 h -13.07 c 0.135,2.234 0.296,4.576 4.447,7.59 3.449,2.504 4.824,3.474 4.824,5.627 0,1.263 -0.809,2.718 -2.641,2.718 -2.641,0 -2.723,-2.179 -2.75,-3.58 h -3.665" /><path
       inkscape:connector-curvature="0"
       id="path74-0"
       style="display:inline;fill:#231f20;fill-opacity:1;fill-rule:nonzero;stroke:none;stroke-width:7.55905533;stroke-miterlimit:4;stroke-dasharray:none;stroke-opacity:1"
       d="m 103.60566,413.53604 c -1.35555,-1.90103 -3.20135,-4.73498 -0.36603,-6.75614 2.30863,-1.64689 4.44097,-1.00462 5.61027,0.6336 1.96072,2.75014 -0.34505,4.83545 -1.45397,5.62628 l -0.052,-0.008 2.85793,4.00859 c 6.48853,-4.6272 3.17234,-10.20402 1.77292,-12.16494 -2.98267,-4.18346 -7.8209,-5.10043 -11.73934,-2.30792 -3.534968,2.52062 -2.906228,5.69048 -2.589798,6.56725 l -0.0597,0.0422 c -1.36007,-0.79484 -3.613,-1.17324 -5.71667,0.32699 -4.38326,3.12634 -3.17947,7.78354 -1.19717,10.56253 3.33754,4.68103 7.67949,4.89449 11.565858,2.12352 l -2.712048,-3.80348 c -0.73166,0.52089 -3.39153,2.41763 -5.39402,-0.39019 -1.60697,-2.25348 0.0441,-3.95822 0.8039,-4.50147 2.68875,-1.91706 4.4104,0.25335 5.287738,1.48196 l 0.45945,0.64348 2.92274,-2.08451" /><path
       inkscape:connector-curvature="0"
       id="path76-1"
       style="display:inline;fill:#231f20;fill-opacity:1;fill-rule:nonzero;stroke:none;stroke-width:7.55905533;stroke-miterlimit:4;stroke-dasharray:none;stroke-opacity:1"
       d="m 167.03784,495.34981 c -5.02585,3.58299 -8.33433,5.81059 -8.97532,6.26665 l 0.0425,0.0598 12.62656,-1.14765 z m -1.38284,-8.67922 1.6485,2.31193 4.58792,-3.27208 2.92084,4.09655 -4.58752,3.27081 5.84081,8.19143 -3.53872,2.52362 -18.06754,1.36513 -3.318,-4.65016 12.97698,-9.25416 -1.6489,-2.31066 3.18563,-2.27241" /><path
       inkscape:connector-curvature="0"
       id="path76-1-5"
       style="display:inline;fill:#231f20;fill-opacity:1;fill-rule:nonzero;stroke:none;stroke-width:7.55905533;stroke-miterlimit:4;stroke-dasharray:none;stroke-opacity:1"
       d="m 184.19539,838.58437 c -5.02585,3.58299 -8.33433,5.81059 -8.97532,6.26665 l 0.0425,0.0598 12.62656,-1.14765 z m -1.38284,-8.67922 1.6485,2.31193 4.58792,-3.27208 2.92084,4.09655 -4.58752,3.27081 5.84081,8.19143 -3.53872,2.52362 -18.06754,1.36513 -3.318,-4.65016 12.97698,-9.25416 -1.6489,-2.31066 3.18563,-2.27241" /></g></svg>