<?xml version="1.0" encoding="UTF-8" standalone="no"?>
<!-- Created with Inkscape (http://www.inkscape.org/) -->

<svg
   xmlns:dc="http://purl.org/dc/elements/1.1/"
   xmlns:cc="http://creativecommons.org/ns#"
   xmlns:rdf="http://www.w3.org/1999/02/22-rdf-syntax-ns#"
   xmlns:svg="http://www.w3.org/2000/svg"
   xmlns="http://www.w3.org/2000/svg"
   xmlns:sodipodi="http://sodipodi.sourceforge.net/DTD/sodipodi-0.dtd"
   xmlns:inkscape="http://www.inkscape.org/namespaces/inkscape"
   version="1.1"
   id="svg2"
   xml:space="preserve"
   width="48"
   height="64"
   viewBox="0 0 48.000001 63.999999"
   sodipodi:docname="print_twoside_short.svg"
   inkscape:version="0.92.4 (5da689c313, 2019-01-14)"><metadata
     id="metadata8"><rdf:RDF><cc:Work
         rdf:about=""><dc:format>image/svg+xml</dc:format><dc:type
           rdf:resource="http://purl.org/dc/dcmitype/StillImage" /><dc:title></dc:title></cc:Work></rdf:RDF></metadata><defs
     id="defs6" /><sodipodi:namedview
     pagecolor="#ffffff"
     bordercolor="#666666"
     borderopacity="1"
     objecttolerance="10"
     gridtolerance="10"
     guidetolerance="10"
     inkscape:pageopacity="0"
     inkscape:pageshadow="2"
     inkscape:window-width="1920"
     inkscape:window-height="1017"
     id="namedview4"
     showgrid="false"
     inkscape:zoom="10.639427"
     inkscape:cx="-33.216208"
     inkscape:cy="40.406711"
     inkscape:window-x="-8"
     inkscape:window-y="-8"
     inkscape:window-maximized="1"
     inkscape:current-layer="layer1" /><g
     id="g10"
     inkscape:groupmode="layer"
     inkscape:label="ink_ext_XXXXXX"
     transform="matrix(1.3333333,0,0,-1.3333333,0,63.999979)"
     style="display:inline"><path
       inkscape:connector-curvature="0"
       id="path14"
       style="fill:#ffffff;fill-opacity:1;fill-rule:nonzero;stroke:#ff4081;stroke-width:0.78547651;stroke-linecap:round;stroke-linejoin:round;stroke-miterlimit:4;stroke-dasharray:none;stroke-opacity:1"
       d="M 31.102164,5.7506832 H 21.243936 V 36.927716 l -3.750655,2.234533 V 5.4955844 H 7.6350525 V 45.035406 l -4.179102,2.489916 V 0.3927225 H 35.603017 V 28.372959 l -4.500853,2.681197 V 5.7506832" /><path
       inkscape:connector-curvature="0"
       id="path16"
       style="fill:none;stroke:#ff4081;stroke-width:0.78547651;stroke-linecap:round;stroke-linejoin:round;stroke-miterlimit:4;stroke-dasharray:none;stroke-opacity:1"
       d="M 31.102164,5.7506832 H 21.243936 V 36.927716 l -3.750655,2.234533 V 5.4955844 H 7.6350525 V 45.035406 l -4.179102,2.489916 V 0.3927225 H 35.603017 V 28.372959 l -4.500853,2.681197 z" /><path
       inkscape:connector-curvature="0"
       id="path18"
       style="fill:#ffffff;fill-opacity:1;fill-rule:nonzero;stroke:#ff4081;stroke-width:0.78547651;stroke-linecap:round;stroke-linejoin:round;stroke-miterlimit:4;stroke-dasharray:none;stroke-opacity:1"
       d="M 17.493281,5.4955844 V 39.162249 L 7.6350525,45.035406 V 5.4955844 h 9.8582285" /><path
       inkscape:connector-curvature="0"
       id="path20"
       style="fill:none;stroke:#ff4081;stroke-width:0.78547651;stroke-linecap:round;stroke-linejoin:round;stroke-miterlimit:4;stroke-dasharray:none;stroke-opacity:1"
       d="M 17.493281,5.4955844 V 39.162249 L 7.6350525,45.035406 V 5.4955844 Z" /><path
       inkscape:connector-curvature="0"
       id="path22"
       style="fill:#ffffff;fill-opacity:1;fill-rule:nonzero;stroke:#ff4081;stroke-width:0.78547651;stroke-linecap:round;stroke-linejoin:round;stroke-miterlimit:4;stroke-dasharray:none;stroke-opacity:1"
       d="M 31.102164,5.7506832 V 31.054156 l -9.858228,5.87356 V 5.7506832 h 9.858228" /><path
       inkscape:connector-curvature="0"
       id="path24"
       style="fill:none;stroke:#ff4081;stroke-width:0.78547651;stroke-linecap:round;stroke-linejoin:round;stroke-miterlimit:4;stroke-dasharray:none;stroke-opacity:1"
       d="M 31.102164,5.7506832 V 31.054156 l -9.858228,5.87356 V 5.7506832 Z" /><path
       inkscape:connector-curvature="0"
       id="path30"
       style="fill:#ffffff;fill-opacity:1;fill-rule:nonzero;stroke:#ff4081;stroke-width:0.78547651;stroke-linecap:round;stroke-linejoin:round;stroke-miterlimit:4;stroke-dasharray:none;stroke-opacity:1"
       d="m 0.39691446,44.958007 2.95724804,2.64935 4.183928,-2.478626 -1.546178,-1.385144 5.9273305,-9.377944 5.488538,4.916538 3.754718,-2.224255 -7.159325,-6.413346 5.927448,-9.378144 11.10145,9.94494 4.505423,-2.669103 L 19.725762,14.376975 0.39691446,44.958007" /><path
       inkscape:connector-curvature="0"
       id="path32"
       style="fill:none;stroke:#ff4081;stroke-width:0.78547651;stroke-linecap:round;stroke-linejoin:round;stroke-miterlimit:4;stroke-dasharray:none;stroke-opacity:1"
       d="m 0.39691446,44.958007 2.95724804,2.64935 4.183928,-2.478626 -1.546178,-1.385144 5.9273305,-9.377944 5.488538,4.916538 3.754718,-2.224255 -7.159325,-6.413346 5.927448,-9.378144 11.10145,9.94494 4.505423,-2.669103 -15.811733,-14.165298 z" /><path
       inkscape:connector-curvature="0"
       id="path34"
       style="fill:#ffffff;fill-opacity:1;fill-rule:nonzero;stroke:#ff4081;stroke-width:0.78547651;stroke-linecap:round;stroke-linejoin:round;stroke-miterlimit:4;stroke-dasharray:none;stroke-opacity:1"
       d="m 11.919243,34.365643 -5.9273305,9.377944 1.546178,1.385144 9.8696905,-5.84655 -5.488538,-4.916538" /><path
       inkscape:connector-curvature="0"
       id="path36"
       style="fill:none;stroke:#ff4081;stroke-width:0.78547651;stroke-linecap:round;stroke-linejoin:round;stroke-miterlimit:4;stroke-dasharray:none;stroke-opacity:1"
       d="m 11.919243,34.365643 -5.9273305,9.377944 1.546178,1.385144 9.8696905,-5.84655 z" /><path
       inkscape:connector-curvature="0"
       id="path38"
       style="fill:#ffffff;fill-opacity:1;fill-rule:nonzero;stroke:#ff4081;stroke-width:0.78547651;stroke-linecap:round;stroke-linejoin:round;stroke-miterlimit:4;stroke-dasharray:none;stroke-opacity:1"
       d="m 19.930622,21.266436 -5.927448,9.378144 7.159325,6.413346 9.869573,-5.84655 -11.10145,-9.94494" /><path
       inkscape:connector-curvature="0"
       id="path40"
       style="fill:none;stroke:#ff4081;stroke-width:0.78547651;stroke-linecap:round;stroke-linejoin:round;stroke-miterlimit:4;stroke-dasharray:none;stroke-opacity:1"
       d="m 19.930622,21.266436 -5.927448,9.378144 7.159325,6.413346 9.869573,-5.84655 z" /></g><g
     inkscape:groupmode="layer"
     id="layer1"
     inkscape:label="ink_ext_XXXXXX 1"
     style="display:inline"
     transform="translate(0,-939.82672)"><path
       inkscape:connector-curvature="0"
       id="path26"
       style="display:inline;fill:#231f20;fill-opacity:1;fill-rule:nonzero;stroke:none;stroke-width:1.39640272;stroke-miterlimit:4;stroke-dasharray:none;stroke-opacity:1"
       d="m 11.153313,990.98061 h 0.121608 c 0.821408,0 1.040447,-0.50652 1.058619,-0.89024 h 0.69962 v 5.13672 h -0.851658 v -3.53787 h -1.028189 v -0.70861" /><path
       inkscape:connector-curvature="0"
       id="path28"
       style="display:inline;fill:#231f20;fill-opacity:1;fill-rule:nonzero;stroke:none;stroke-width:1.39640272;stroke-miterlimit:4;stroke-dasharray:none;stroke-opacity:1"
       d="m 31.234615,991.92438 h 0.13364 c 0.255766,0 0.724182,-0.0285 0.724182,-0.69443 0,-0.18812 -0.07292,-0.65844 -0.541556,-0.65844 -0.583996,0 -0.583996,0.65844 -0.583996,0.83953 H 30.17611 c 0,-0.96216 0.456225,-1.64979 1.429626,-1.64979 0.577901,0 1.338201,0.3475 1.338201,1.43247 0,0.52103 -0.273599,0.84646 -0.51695,0.97665 v 0.0147 c 0.151925,0.0506 0.650816,0.31828 0.650816,1.19363 0,0.96949 -0.602281,1.65658 -1.472067,1.65658 -0.40769,0 -1.502767,-0.10812 -1.502767,-1.71466 h 0.833441 l -0.0061,0.008 c 0,0.2745 0.06095,0.89674 0.632756,0.89674 0.340645,0 0.638851,-0.27474 0.638851,-0.84635 0,-0.70182 -0.572031,-0.73047 -0.967307,-0.73047 v -0.72385" /><path
       inkscape:connector-curvature="0"
       id="path42"
       style="display:inline;fill:#231f20;fill-opacity:1;fill-rule:nonzero;stroke:none;stroke-width:1.39640284;stroke-miterlimit:4;stroke-dasharray:none;stroke-opacity:1"
       d="m 16.569018,954.02656 c -0.24741,0.23424 -0.637748,0.59121 -1.01818,0.0445 -0.264055,-0.37918 -0.12724,-0.79589 0.09257,-1.01283 0.373917,-0.36884 0.740749,-0.25028 1.672477,0.0338 1.121674,0.34262 1.552557,-0.0256 1.960112,-0.38048 l -1.881781,-2.70535 -0.580397,0.57251 1.194838,1.71802 c -0.216096,0.0628 -0.556531,-0.0624 -1.230177,-0.28287 -0.487397,-0.16778 -1.084449,-0.32221 -1.655046,0.24075 -0.673777,0.66452 -0.629497,1.63597 -0.101471,2.39472 0.244135,0.35118 0.993762,1.20164 2.074961,0.13539 l -0.52791,-0.75819" /><path
       inkscape:connector-curvature="0"
       id="path76-1-5"
       style="display:inline;fill:#231f20;fill-opacity:1;fill-rule:nonzero;stroke:none;stroke-width:1.39640284;stroke-miterlimit:4;stroke-dasharray:none;stroke-opacity:1"
       d="m 28.046804,970.13062 c -0.85091,0.7222 -1.411059,1.17121 -1.519583,1.26313 l 0.0072,0.0121 2.137763,-0.23133 z m -0.234124,-1.74941 0.279102,0.466 0.776766,-0.65953 0.494518,0.82571 -0.776698,0.65928 0.988889,1.65109 -0.599129,0.50867 -3.058959,0.27516 -0.561759,-0.9373 2.197092,-1.8653 -0.27917,-0.46575 0.539348,-0.45803" /></g></svg>