<?xml version="1.0" encoding="UTF-8" standalone="no"?>
<!-- Created with Inkscape (http://www.inkscape.org/) -->

<svg
   xmlns:dc="http://purl.org/dc/elements/1.1/"
   xmlns:cc="http://creativecommons.org/ns#"
   xmlns:rdf="http://www.w3.org/1999/02/22-rdf-syntax-ns#"
   xmlns:svg="http://www.w3.org/2000/svg"
   xmlns="http://www.w3.org/2000/svg"
   xmlns:sodipodi="http://sodipodi.sourceforge.net/DTD/sodipodi-0.dtd"
   xmlns:inkscape="http://www.inkscape.org/namespaces/inkscape"
   version="1.1"
   id="svg2"
   xml:space="preserve"
   width="48"
   height="64"
   viewBox="0 0 48.000001 63.999999"
   sodipodi:docname="print_twoside_long.svg"
   inkscape:version="0.92.4 (5da689c313, 2019-01-14)"><metadata
     id="metadata8"><rdf:RDF><cc:Work
         rdf:about=""><dc:format>image/svg+xml</dc:format><dc:type
           rdf:resource="http://purl.org/dc/dcmitype/StillImage" /><dc:title></dc:title></cc:Work></rdf:RDF></metadata><defs
     id="defs6" /><sodipodi:namedview
     pagecolor="#ffffff"
     bordercolor="#666666"
     borderopacity="1"
     objecttolerance="10"
     gridtolerance="10"
     guidetolerance="10"
     inkscape:pageopacity="0"
     inkscape:pageshadow="2"
     inkscape:window-width="1920"
     inkscape:window-height="1017"
     id="namedview4"
     showgrid="false"
     inkscape:zoom="5.3197134"
     inkscape:cx="-42.564571"
     inkscape:cy="8.904889"
     inkscape:window-x="-8"
     inkscape:window-y="-8"
     inkscape:window-maximized="1"
     inkscape:current-layer="layer1" /><g
     id="g10"
     inkscape:groupmode="layer"
     inkscape:label="ink_ext_XXXXXX"
     transform="matrix(1.3333333,0,0,-1.3333333,0,63.999979)"
     style="display:inline"><path
       inkscape:connector-curvature="0"
       id="path46"
       style="fill:#ffffff;fill-opacity:1;fill-rule:nonzero;stroke:#ff4081;stroke-width:0.78726214;stroke-linecap:round;stroke-linejoin:round;stroke-miterlimit:4;stroke-dasharray:none;stroke-opacity:1"
       d="m 30.985306,5.7606853 h -9.88646 V 36.990935 l -3.76116,2.23833 V 5.5052753 H 7.4512951 V 45.112415 l -4.1909975,2.49415 V 0.39361532 H 35.4988 V 28.421435 l -4.513494,2.68595 V 5.7606853" /><path
       inkscape:connector-curvature="0"
       id="path48"
       style="fill:none;stroke:#ff4081;stroke-width:0.78726214;stroke-linecap:round;stroke-linejoin:round;stroke-miterlimit:4;stroke-dasharray:none;stroke-opacity:1"
       d="m 30.985306,5.7606853 h -9.88646 V 36.990935 l -3.76116,2.23833 V 5.5052753 H 7.4512951 V 45.112415 l -4.1909975,2.49415 V 0.39361532 H 35.4988 V 28.421435 l -4.513494,2.68595 z" /><path
       inkscape:connector-curvature="0"
       id="path50"
       style="fill:#ffffff;fill-opacity:1;fill-rule:nonzero;stroke:#ff4081;stroke-width:0.78726214;stroke-linecap:round;stroke-linejoin:round;stroke-miterlimit:4;stroke-dasharray:none;stroke-opacity:1"
       d="M 17.337686,5.5052753 V 39.229265 l -9.8863909,5.88315 V 5.5052753 h 9.8863909" /><path
       inkscape:connector-curvature="0"
       id="path52"
       style="fill:none;stroke:#ff4081;stroke-width:0.78726214;stroke-linecap:round;stroke-linejoin:round;stroke-miterlimit:4;stroke-dasharray:none;stroke-opacity:1"
       d="M 17.337686,5.5052753 V 39.229265 l -9.8863909,5.88315 V 5.5052753 Z" /><path
       inkscape:connector-curvature="0"
       id="path54"
       style="fill:#ffffff;fill-opacity:1;fill-rule:nonzero;stroke:#ff4081;stroke-width:0.78726214;stroke-linecap:round;stroke-linejoin:round;stroke-miterlimit:4;stroke-dasharray:none;stroke-opacity:1"
       d="M 30.985306,5.7606853 V 31.107385 l -9.88646,5.88355 V 5.7606853 h 9.88646" /><path
       inkscape:connector-curvature="0"
       id="path56"
       style="fill:none;stroke:#ff4081;stroke-width:0.78726214;stroke-linecap:round;stroke-linejoin:round;stroke-miterlimit:4;stroke-dasharray:none;stroke-opacity:1"
       d="M 30.985306,5.7606853 V 31.107385 l -9.88646,5.88355 V 5.7606853 Z" /><path
       inkscape:connector-curvature="0"
       id="path62"
       style="fill:#ffffff;fill-opacity:1;fill-rule:nonzero;stroke:#ff4081;stroke-width:0.78726214;stroke-linecap:round;stroke-linejoin:round;stroke-miterlimit:4;stroke-dasharray:none;stroke-opacity:1"
       d="m 0.39782918,44.863665 2.97164262,2.64437 4.1902504,-2.49557 -1.5538216,-1.38285 5.9235724,-9.41247 5.51484,4.90774 3.760482,-2.24015 -7.193763,-6.40184 5.923573,-9.41226 11.154781,9.92672 4.512816,-2.68758 L 19.71388,14.170285 0.39782918,44.863665" /><path
       inkscape:connector-curvature="0"
       id="path64"
       style="fill:none;stroke:#ff4081;stroke-width:0.78726214;stroke-linecap:round;stroke-linejoin:round;stroke-miterlimit:4;stroke-dasharray:none;stroke-opacity:1"
       d="m 0.39782918,44.863665 2.97164262,2.64437 4.1902504,-2.49557 -1.5538216,-1.38285 5.9235724,-9.41247 5.51484,4.90774 3.760482,-2.24015 -7.193763,-6.40184 5.923573,-9.41226 11.154781,9.92672 4.512816,-2.68758 -15.888322,-14.13949 z" /><path
       inkscape:connector-curvature="0"
       id="path66"
       style="fill:#ffffff;fill-opacity:1;fill-rule:nonzero;stroke:#ff4081;stroke-width:0.78726214;stroke-linecap:round;stroke-linejoin:round;stroke-miterlimit:4;stroke-dasharray:none;stroke-opacity:1"
       d="m 11.929473,34.217145 -5.9235724,9.41247 1.5538216,1.38285 9.8845908,-5.88758 -5.51484,-4.90774" /><path
       inkscape:connector-curvature="0"
       id="path68"
       style="fill:none;stroke:#ff4081;stroke-width:0.78726214;stroke-linecap:round;stroke-linejoin:round;stroke-miterlimit:4;stroke-dasharray:none;stroke-opacity:1"
       d="m 11.929473,34.217145 -5.9235724,9.41247 1.5538216,1.38285 9.8845908,-5.88758 z" /><path
       inkscape:connector-curvature="0"
       id="path70"
       style="fill:#ffffff;fill-opacity:1;fill-rule:nonzero;stroke:#ff4081;stroke-width:0.78726214;stroke-linecap:round;stroke-linejoin:round;stroke-miterlimit:4;stroke-dasharray:none;stroke-opacity:1"
       d="m 19.934605,21.070635 -5.923573,9.41226 7.193763,6.40184 9.884591,-5.88738 -11.154781,-9.92672" /><path
       inkscape:connector-curvature="0"
       id="path72"
       style="fill:none;stroke:#ff4081;stroke-width:0.78726214;stroke-linecap:round;stroke-linejoin:round;stroke-miterlimit:4;stroke-dasharray:none;stroke-opacity:1"
       d="m 19.934605,21.070635 -5.923573,9.41226 7.193763,6.40184 9.884591,-5.88738 z" /></g><g
     inkscape:groupmode="layer"
     id="layer1"
     inkscape:label="ink_ext_XXXXXX 1"
     style="display:inline"
     transform="translate(0,-939.82672)"><path
       inkscape:connector-curvature="0"
       id="path58"
       style="display:inline;fill:#231f20;fill-opacity:1;fill-rule:nonzero;stroke:none;stroke-width:1.39957714;stroke-miterlimit:4;stroke-dasharray:none;stroke-opacity:1"
       d="m 10.911074,990.95814 h 0.121954 c 0.823724,0 1.043408,-0.50746 1.061609,-0.89162 h 0.701612 v 5.14538 h -0.85406 v -3.54386 h -1.031115 v -0.7099" /><path
       inkscape:connector-curvature="0"
       id="path60"
       style="display:inline;fill:#231f20;fill-opacity:1;fill-rule:nonzero;stroke:none;stroke-width:1.39957714;stroke-miterlimit:4;stroke-dasharray:none;stroke-opacity:1"
       d="m 29.780783,991.23058 c 0,-1.67421 1.031184,-1.81931 1.41536,-1.81931 0.829927,0 1.488707,0.57987 1.488707,1.6236 0,0.88381 -0.481973,1.33338 -0.902823,1.6742 -0.573434,0.47785 -0.872488,0.71044 -0.97006,0.94896 h 1.878995 v 0.89862 H 29.73211 c 0.03057,-0.60141 0.06701,-1.2319 1.006735,-2.04329 0.780802,-0.6741 1.092081,-0.93523 1.092081,-1.51484 0,-0.34001 -0.183145,-0.7317 -0.597883,-0.7317 -0.597882,0 -0.616446,0.5866 -0.622558,0.96376 h -0.829702" /><path
       inkscape:connector-curvature="0"
       id="path74-0"
       style="display:inline;fill:#231f20;fill-opacity:1;fill-rule:nonzero;stroke:none;stroke-width:1.39957726;stroke-miterlimit:4;stroke-dasharray:none;stroke-opacity:1"
       d="m 17.280087,953.71559 c -0.230158,-0.38383 -0.543554,-0.95602 -0.06215,-1.36411 0.391979,-0.33251 0.754026,-0.20283 0.95256,0.12793 0.332909,0.55527 -0.05858,0.97631 -0.246867,1.13598 l -0.0088,-0.002 0.485245,0.80936 c 1.101679,-0.93426 0.538627,-2.06026 0.301022,-2.45618 -0.506424,-0.84467 -1.327901,-1.02981 -1.993208,-0.46598 -0.600198,0.50892 -0.493445,1.14894 -0.439718,1.32597 l -0.01018,0.009 c -0.230925,-0.16048 -0.613447,-0.23688 -0.970626,0.066 -0.744228,0.63122 -0.539839,1.57154 -0.203266,2.13264 0.566677,0.94513 1.303891,0.98822 1.963752,0.42875 L 16.587376,954.695 c -0.124227,0.10517 -0.575844,0.48814 -0.915844,-0.0788 -0.272845,-0.45499 0.0075,-0.79919 0.136494,-0.90887 0.456519,-0.38707 0.748835,0.0512 0.897798,0.29921 l 0.07801,0.12992 0.496249,-0.42087" /><path
       inkscape:connector-curvature="0"
       id="path76-1"
       style="display:inline;fill:#231f20;fill-opacity:1;fill-rule:nonzero;stroke:none;stroke-width:1.39957726;stroke-miterlimit:4;stroke-dasharray:none;stroke-opacity:1"
       d="m 28.050157,970.2343 c -0.853333,0.72343 -1.415076,1.1732 -1.523908,1.26528 l 0.0072,0.0121 2.143847,-0.23171 z m -0.234791,-1.75239 0.279897,0.4668 0.778978,-0.66066 0.495925,0.82712 -0.778909,0.6604 0.991703,1.6539 -0.600834,0.50954 -3.067665,0.27562 -0.56336,-0.93889 2.203345,-1.86847 -0.279964,-0.46654 0.540884,-0.45882" /></g></svg>